<?xml version="1.0" encoding="utf-8"?>
<!-- Generator: Adobe Illustrator 21.0.0, SVG Export Plug-In . SVG Version: 6.00 Build 0)  -->
<svg version="1.1" id="Layer_1" xmlns="http://www.w3.org/2000/svg" xmlns:xlink="http://www.w3.org/1999/xlink" x="0px" y="0px"
	 viewBox="0 0 22 19" style="enable-background:new 0 0 22 19;" xml:space="preserve">
<g>
	<path d="M12.5,12.1c-2.6,0-4.8-2-4.8-4.4c0-0.6,0.4-1,1-1s1,0.4,1,1c0,1.3,1.3,2.4,2.8,2.4s2.8-1.1,2.8-2.4c0-0.6,0.4-1,1-1
		s1,0.4,1,1C17.3,10.1,15.2,12.1,12.5,12.1z"/>
</g>
<path d="M22,4.8V4.2c0-0.2-0.1-0.5-0.2-0.7l-2.8-3.2C18.7,0.1,18.5,0,18.2,0H6.8C6.7,0,6.6,0,6.5,0.1v2.4h0.3L7.3,2h10.4l1.7,2h-10
	v2H20v10.3c0,0.4-0.4,0.7-0.9,0.7H5.9C5.4,17,5,16.7,5,16.3v-5.8H3v5.8C3,17.8,4.3,19,5.9,19h13.2c1.6,0,2.9-1.2,2.9-2.7V5.2
	c0-0.1,0-0.1,0-0.2S22,4.9,22,4.8z"/>
<g>
	<polygon points="8,4 5,4 5,1 3,1 3,4 0,4 0,6 3,6 3,9 5,9 5,6 8,6 	"/>
</g>
</svg>
