<svg width="14" height="19" viewBox="0 0 14 19" fill="none" xmlns="http://www.w3.org/2000/svg">
<path d="M6.96352 17.3024C6.59035 17.3019 6.2326 17.1534 5.96876 16.8895C5.70493 16.6256 5.55656 16.2678 5.5562 15.8947H4.75146C4.75146 16.1851 4.80868 16.4728 4.91985 16.7412C5.03101 17.0095 5.19395 17.2534 5.39936 17.4588C5.60477 17.6642 5.84862 17.8272 6.117 17.9383C6.38538 18.0495 6.67303 18.1067 6.96352 18.1067C7.25401 18.1067 7.54165 18.0495 7.81003 17.9383C8.07841 17.8272 8.32227 17.6642 8.52767 17.4588C8.73308 17.2534 8.89602 17.0095 9.00719 16.7412C9.11835 16.4728 9.17557 16.1851 9.17557 15.8947H8.37083C8.37048 16.2678 8.22211 16.6256 7.95827 16.8895C7.69444 17.1534 7.33669 17.3019 6.96352 17.3024V17.3024Z" fill="#737373"/>
<path d="M1.24153 15.1806H12.6859C13.3558 15.1806 13.8392 14.7861 13.9174 14.1754C13.9952 13.5636 13.6606 13.1464 13.1081 12.5161C11.7864 11.0096 11.6927 9.97176 11.5917 7.56217C11.5049 5.48841 10.3701 3.99344 8.58772 3.43957V1.62426C8.58772 1.19355 8.41662 0.780471 8.11206 0.475908C7.8075 0.171346 7.39442 0.000244141 6.96371 0.000244141C6.53299 0.000244141 6.11991 0.171346 5.81535 0.475908C5.51079 0.780471 5.33969 1.19355 5.33969 1.62426V3.43957C3.55734 3.99343 2.42256 5.48844 2.33567 7.56226C2.23468 9.97177 2.14097 11.0096 0.819119 12.5162C0.266842 13.1464 -0.0677463 13.5636 0.0102531 14.1756C0.0882525 14.7861 0.571567 15.1806 1.24153 15.1806ZM6.14443 1.62426C6.14443 1.40698 6.23074 1.19859 6.38439 1.04495C6.53803 0.8913 6.74642 0.804984 6.96371 0.804984C7.18099 0.804984 7.38938 0.8913 7.54302 1.04495C7.69667 1.19859 7.78299 1.40698 7.78299 1.62426V3.26041C7.23974 3.18032 6.68768 3.18032 6.14443 3.26041V1.62426ZM1.42405 13.0468C2.91958 11.3425 3.03588 10.0751 3.13962 7.59596C3.25064 4.94843 5.18782 4.00508 6.96371 4.00508C8.7396 4.00508 10.6768 4.94844 10.7878 7.59586C10.8915 10.0751 11.0078 11.3425 12.5032 13.0467C13.0332 13.6514 13.1484 13.8434 13.1191 14.0735C13.0934 14.2741 12.9476 14.3758 12.6859 14.3758H1.24153C0.979831 14.3758 0.834051 14.2741 0.808508 14.0737C0.779039 13.8434 0.894169 13.6514 1.42405 13.0468Z" fill="#737373"/>
</svg>
