<svg width="18" height="18" viewBox="0 0 18 18" fill="none" xmlns="http://www.w3.org/2000/svg">
<path d="M9 0C13.9625 0 18 4.03748 18 9C18 13.9625 13.9625 18 9 18C4.03748 18 0 13.9625 0 9C0 4.03748 4.03748 0 9 0ZM9 16.875C13.3423 16.875 16.875 13.3424 16.875 9.00003C16.875 4.6577 13.3423 1.12501 9 1.12501C4.65767 1.12501 1.12498 4.65767 1.12498 9C1.12498 13.3423 4.65767 16.875 9 16.875Z" fill="white"/>
<path d="M8.43748 4.5H9.56249V8.43751H13.5V9.56252H9.56249V13.5H8.43748V9.56252H4.49997V8.43751H8.43748V4.5Z" fill="white"/>
</svg>
