<?xml version="1.0" encoding="utf-8"?>
<!-- Generator: Adobe Illustrator 22.1.0, SVG Export Plug-In . SVG Version: 6.00 Build 0)  -->
<svg version="1.1" id="icons" xmlns="http://www.w3.org/2000/svg" xmlns:xlink="http://www.w3.org/1999/xlink" x="0px" y="0px"
	 width="52px" height="49px" viewBox="0 0 52 49" enable-background="new 0 0 52 49" xml:space="preserve">
<circle fill="#231F20" cx="39.5" cy="29.5" r="3.5"/>
<path fill="#231F20" d="M47,9.09V6c0-3.279-2.631-5.951-5.91-6H9.82C1,0,0.11,7.23,0,10.88c0,0,0,0.08,0,0.12v32
	c0,3.314,2.686,6,6,6h40c3.314,0,6-2.686,6-6V15C51.997,12.074,49.885,9.578,47,9.09z M9.82,4h31.27c1.069,0.048,1.911,0.93,1.91,2
	v3H4.18C4.69,5.37,6.35,4,9.82,4z M48,43c0,1.105-0.895,2-2,2H6c-1.105,0-2-0.895-2-2V13h42c1.105,0,2,0.895,2,2V43z"/>
</svg>
