<?xml version="1.0" encoding="utf-8"?>
<!-- Generator: Adobe Illustrator 21.0.0, SVG Export Plug-In . SVG Version: 6.00 Build 0)  -->
<svg version="1.1" id="Layer_1" xmlns="http://www.w3.org/2000/svg" xmlns:xlink="http://www.w3.org/1999/xlink" x="0px" y="0px"
	 viewBox="0 0 19 19" style="enable-background:new 0 0 19 19;" xml:space="preserve">
<g>
	<path d="M18.9,4C18.9,4,18.9,3.9,18.9,4c-0.1-0.1-0.1-0.2-0.1-0.2L16,0.3C15.8,0.1,15.5,0,15.2,0H3.8C3.5,0,3.2,0.1,3,0.3L0.2,3.8
		c0,0,0,0.1-0.1,0.1c0,0,0,0.1-0.1,0.1C0,4.1,0,4.2,0,4.3v12.1C0,17.8,1.3,19,2.8,19h13.3c1.6,0,2.9-1.2,2.9-2.6V4.3
		C19,4.2,19,4.1,18.9,4z M4.3,1.7h10.5l1.4,1.7H2.9L4.3,1.7z M16.1,17.3H2.8c-0.5,0-0.9-0.4-0.9-0.9V5.2h15.2v11.2
		C17.1,16.9,16.7,17.3,16.1,17.3z"/>
	<path d="M13.3,6.9c-0.5,0-0.9,0.4-0.9,0.9c0,1.4-1.3,2.6-2.9,2.6S6.7,9.2,6.7,7.8c0-0.5-0.4-0.9-1-0.9S4.8,7.3,4.8,7.8
		c0,2.4,2.1,4.3,4.8,4.3s4.8-1.9,4.8-4.3C14.2,7.3,13.8,6.9,13.3,6.9z"/>
</g>
</svg>
