<svg width="32" height="30" viewBox="0 0 32 30" fill="none" xmlns="http://www.w3.org/2000/svg">
<path d="M16.0249 0C7.21121 0 0 5.95127 0 13.2797C0 17.2144 2.10327 20.9032 5.6588 23.4116L4.10638 27.2971C3.80592 28.0841 4.00623 28.9694 4.65724 29.5104C5.41041 30.1439 6.16608 30.0908 6.96082 29.7563L13.1204 26.3626C14.0719 26.5102 15.0234 26.5594 15.9748 26.5594C24.7885 26.5594 31.9997 20.6081 31.9997 13.2797C32.0498 5.95127 24.8386 0 16.0249 0ZM16.0249 24.592C14.9232 24.592 13.8215 24.4936 12.7698 24.2969L6.00934 28.0349L8.11261 22.6246C4.40685 20.6081 2.00311 17.1652 2.00311 13.2797C2.00311 7.03331 8.26284 1.96736 16.0249 1.96736C23.787 1.96736 30.0467 7.03331 30.0467 13.2797C30.0467 19.5261 23.787 24.592 16.0249 24.592Z" fill="white"/>
</svg>
