<svg width="18" height="17" viewBox="0 0 18 17" xmlns="http://www.w3.org/2000/svg">
<path d="M17.0499 7.6399C17.075 3.93941 13.4374 0.95 9.01245 0.95C4.58726 0.95 0.95 3.93958 0.95 7.63984C0.95 9.61394 1.99892 11.4622 3.76836 12.7238L3.00675 14.63L3.00648 14.6307L3.32862 15.7552L3.29643 15.7935C3.29647 15.7935 3.29651 15.7935 3.29655 15.7936C3.49223 15.9581 3.69078 16.0353 3.89358 16.0481C4.0953 16.0608 4.29716 16.0095 4.4998 15.9242L4.49991 15.9245L4.50454 15.922L7.56942 14.2333C8.0428 14.3056 8.51561 14.3297 8.98742 14.3297C13.4126 14.3297 17.0498 11.3401 17.0499 7.6399ZM17.0499 7.6399C17.0499 7.64 17.0499 7.64009 17.0499 7.64018L16.9999 7.63984H17.0499C17.0499 7.63986 17.0499 7.63988 17.0499 7.6399ZM7.39412 13.0993L7.37646 13.096L7.36073 13.1047L4.1013 14.9069L5.10291 12.3304L5.11885 12.2894L5.0802 12.2684C3.23978 11.2669 2.05156 9.5605 2.05156 7.63984C2.05156 4.55372 5.14852 2.03368 9.01245 2.03368C12.8764 2.03368 15.9734 4.55372 15.9734 7.63984C15.9734 10.726 12.8764 13.246 9.01245 13.246C8.46452 13.246 7.91675 13.1971 7.39412 13.0993Z" stroke-width="0.1"/>
</svg>
