<svg width="20" height="19" viewBox="0 0 20 19" xmlns="http://www.w3.org/2000/svg">
<path d="M1.04482 6.76018L4.20117 1.17678C4.26264 1.06771 4.37818 1 4.50366 1L15.8029 1C15.8142 1 15.8248 1.00069 15.8345 1.00185C15.8445 1.00069 15.8551 1 15.8664 1L18.7549 1C18.946 1 19.1016 1.15552 19.1016 1.34662V12.207C19.1016 12.3981 18.946 12.5536 18.7549 12.5536H15.8664C15.8551 12.5536 15.8447 12.5529 15.8348 12.5518C15.8248 12.5529 15.8142 12.5536 15.8029 12.5536H13.9339L9.9833 17.5961C9.95442 17.633 9.91906 17.6633 9.87885 17.6857C9.78018 17.7407 8.89491 18.2228 8.18086 18.2228C7.63574 18.2228 7.27502 17.9376 7.1916 17.4403C7.00419 16.3293 7.13106 13.417 7.1745 12.5536H1.34685C1.15551 12.5536 1.00023 12.3981 1.00023 12.207V6.93072C1.00023 6.8711 1.01548 6.81217 1.04482 6.76018ZM16.213 11.8604H18.4083V1.69325L16.213 1.69325V11.8604ZM1.69347 11.8604H7.4176C7.67271 11.8604 7.87976 12.0704 7.8793 12.3424C7.87745 12.3796 7.67526 16.1407 7.87514 17.3255C7.89455 17.441 7.92922 17.5295 8.18063 17.5295C8.55036 17.5295 9.10219 17.3095 9.48209 17.1115L13.3689 12.1509C13.3959 11.9863 13.539 11.8604 13.7109 11.8604H15.456L15.456 1.69325L4.70562 1.69325L1.69347 7.02222V11.8604Z" />
<path fill-rule="evenodd" clip-rule="evenodd" d="M0.871824 6.66167C0.825304 6.74409 0.801395 6.83695 0.801395 6.93052V12.2068C0.801395 12.5083 1.04614 12.7534 1.34802 12.7534H6.96572C6.94279 13.2411 6.90952 14.0594 6.89767 14.9011C6.884 15.8728 6.89833 16.897 6.99556 17.4734C7.04433 17.7639 7.1774 18.0064 7.39021 18.1747C7.60167 18.3419 7.87487 18.4226 8.18204 18.4226C8.57717 18.4226 9.00517 18.2909 9.33519 18.1607C9.66933 18.0289 9.92378 17.8901 9.9774 17.8602C10.0411 17.8247 10.0969 17.7768 10.1421 17.719L14.0324 12.7534H15.804C15.815 12.7534 15.8256 12.7531 15.8359 12.7524C15.846 12.7531 15.8566 12.7534 15.8676 12.7534H18.7561C19.0577 12.7534 19.3027 12.5084 19.3027 12.2068V1.34643C19.3027 1.04487 19.0577 0.799805 18.7561 0.799805L15.8676 0.799805C15.8566 0.799805 15.846 0.800183 15.8358 0.800867C15.8255 0.800177 15.8149 0.799805 15.804 0.799805L4.50483 0.799805C4.30703 0.799805 4.12496 0.906531 4.02811 1.07839L0.871824 6.66167ZM15.8357 1.00165C15.8456 1.0005 15.8563 0.999805 15.8676 0.999805L18.7561 0.999805C18.9472 0.999805 19.1027 1.15532 19.1027 1.34643V12.2068C19.1027 12.3979 18.9472 12.5534 18.7561 12.5534H15.8676C15.8563 12.5534 15.8459 12.5527 15.8359 12.5516C15.826 12.5527 15.8154 12.5534 15.804 12.5534H13.9351L9.98447 17.5959C9.95559 17.6329 9.92023 17.6631 9.88003 17.6855C9.78135 17.7405 8.89608 18.2226 8.18204 18.2226C7.63691 18.2226 7.27619 17.9374 7.19277 17.4401C7.01792 16.4035 7.11664 13.799 7.16594 12.7534C7.16948 12.6783 7.17276 12.6113 7.17567 12.5534H1.34802C1.15668 12.5534 1.0014 12.3979 1.0014 12.2068V6.93052C1.0014 6.8709 4.47548 1.39842 4.50483 1.34643M7.88047 12.3422C7.88094 12.0702 7.67389 11.8602 7.41877 11.8602H1.69464V7.02203L4.7068 1.69305L15.4572 1.69305L15.4572 11.8602H13.7121C13.5401 11.8602 13.3971 11.9861 13.3701 12.1507L9.48326 17.1113C9.10336 17.3093 8.55154 17.5293 8.1818 17.5293C7.93039 17.5293 7.89573 17.4408 7.87631 17.3253C7.68026 16.1633 7.87102 12.5228 7.88015 12.3484C7.88033 12.345 7.88047 12.3422 7.88047 12.3422ZM9.35279 16.9535C9.17763 17.0427 8.96935 17.1346 8.76362 17.2055C8.53913 17.2827 8.33355 17.3293 8.1818 17.3293C8.12955 17.3293 8.09831 17.3246 8.081 17.3201L8.07905 17.3196C8.07755 17.3135 8.07564 17.3046 8.07355 17.2921C7.97745 16.7226 7.97675 15.5071 8.00269 14.4081C8.02742 13.3602 8.0754 12.4444 8.0799 12.3584C8.08008 12.355 8.08023 12.3522 8.08023 12.3522L8.0807 12.3426C8.08134 11.9662 7.79058 11.6602 7.41877 11.6602H1.89464V7.07464L4.82349 1.89305L15.2572 1.89305V11.6602H13.7121C13.46 11.6602 13.2482 11.8312 13.1848 12.0628L9.35279 16.9535ZM18.2095 11.6602H16.4142V1.89305L18.2095 1.89305V11.6602ZM16.2142 11.8602V1.69305L18.4095 1.69305V11.8602H16.2142Z" />
</svg>
