<svg width="15" height="5" viewBox="0 0 15 5" xmlns="http://www.w3.org/2000/svg">
<path d="M3.96008 2.45904C3.96008 3.33334 3.25131 4.04211 2.37701 4.04211C1.50271 4.04211 0.793945 3.33334 0.793945 2.45904C0.793945 1.58474 1.50271 0.875977 2.37701 0.875977C3.25131 0.875977 3.96008 1.58474 3.96008 2.45904Z" />
<path d="M14.2499 2.45904C14.2499 3.33334 13.5411 4.04211 12.6668 4.04211C11.7925 4.04211 11.0837 3.33334 11.0837 2.45904C11.0837 1.58474 11.7925 0.875977 12.6668 0.875977C13.5411 0.875977 14.2499 1.58474 14.2499 2.45904Z" />
<path d="M9.10522 2.45904C9.10522 3.33334 8.39646 4.04211 7.52215 4.04211C6.64785 4.04211 5.93909 3.33334 5.93909 2.45904C5.93909 1.58474 6.64785 0.875977 7.52215 0.875977C8.39646 0.875977 9.10522 1.58474 9.10522 2.45904Z" />
</svg>
