<svg width="15" height="17" viewBox="0 0 15 17" fill="none" xmlns="http://www.w3.org/2000/svg">
<path d="M9.95431 0.0981829C9.87636 0.0160829 9.76949 -0.0332031 9.65872 -0.0332031H3.02704C1.80332 -0.0332031 0.793213 0.972879 0.793213 2.19647V14.737C0.793213 15.9607 1.80332 16.9668 3.02704 16.9668H12.028C13.2517 16.9668 14.2618 15.9607 14.2618 14.737V4.77931C14.2618 4.67257 14.2125 4.56998 14.1427 4.4919L9.95431 0.0981829ZM10.0734 1.41632L12.878 4.36051H11.0548C10.5128 4.36051 10.0734 3.92524 10.0734 3.38322V1.41632ZM12.028 16.1456H3.02704C2.25921 16.1456 1.61447 15.5091 1.61447 14.737V2.19647C1.61447 1.42864 2.25506 0.788057 3.02704 0.788057H9.25211V3.38322C9.25211 4.381 10.057 5.18177 11.0548 5.18177H13.4405V14.737C13.4405 15.5091 12.7999 16.1456 12.028 16.1456Z" fill="white"/>
<path d="M10.9071 13.3125H4.14818C3.92237 13.3125 3.73755 13.4972 3.73755 13.7231C3.73755 13.9489 3.92237 14.1338 4.14818 14.1338H10.9113C11.1371 14.1338 11.3219 13.9489 11.3219 13.7231C11.3219 13.4972 11.1371 13.3125 10.9071 13.3125Z" fill="white"/>
<path d="M5.42507 8.89381L7.11687 7.07464V11.5588C7.11687 11.7846 7.3017 11.9694 7.5275 11.9694C7.75344 11.9694 7.93813 11.7846 7.93813 11.5588V7.07464L9.62993 8.89381C9.71203 8.97993 9.81891 9.0252 9.92967 9.0252C10.0282 9.0252 10.131 8.98823 10.2089 8.91431C10.3732 8.75828 10.3856 8.49952 10.2295 8.33532L7.82322 5.75248C7.74514 5.67038 7.6384 5.62109 7.52348 5.62109C7.40844 5.62109 7.3017 5.67038 7.22375 5.75248L4.81743 8.33532C4.6614 8.49952 4.67372 8.7623 4.83792 8.91431C5.01042 9.07033 5.26904 9.05801 5.42507 8.89381Z" fill="white"/>
</svg>
