<?xml version="1.0" encoding="utf-8"?>
<!-- Generator: Adobe Illustrator 21.0.0, SVG Export Plug-In . SVG Version: 6.00 Build 0)  -->
<svg version="1.1" id="Layer_1" xmlns="http://www.w3.org/2000/svg" xmlns:xlink="http://www.w3.org/1999/xlink" x="0px" y="0px"
	 viewBox="0 0 20 19" style="enable-background:new 0 0 20 19;" xml:space="preserve">
<style type="text/css">
	.st0{opacity:0.9;}
</style>
<g id="Page-1">
	<g id="Core" transform="translate(-464.000000, -254.000000)" class="st0">
		<g id="history" transform="translate(464.000000, 254.500000)">
			<path id="Shape" d="M10.5-0.5C7-0.5,3.9,1.4,2.3,4.3L0,2v6.5h6.5L3.7,5.7C5,3.2,7.5,1.5,10.5,1.5C14.6,1.5,18,4.9,18,9
				s-3.4,7.5-7.5,7.5c-3.3,0-6-2.1-7.1-5H1.3c1.1,4,4.8,7,9.2,7c5.3,0,9.5-4.3,9.5-9.5S15.7-0.5,10.5-0.5L10.5-0.5z M9,4.5v5.1
				l4.7,2.8l0.8-1.3l-4-2.4V4.5H9L9,4.5z"/>
		</g>
	</g>
</g>
</svg>
