<svg width="24" height="21" viewBox="0 0 24 21" fill="none" xmlns="http://www.w3.org/2000/svg">
<path d="M10.9134 9.49228C12.2311 9.49228 13.3033 8.41712 13.3033 7.0956C13.3033 5.77389 12.2311 4.69873 10.9134 4.69873C9.59571 4.69873 8.52368 5.77389 8.52368 7.0956C8.52368 8.41712 9.59571 9.49228 10.9134 9.49228ZM10.9134 6.10445C11.4583 6.10445 11.9016 6.54905 11.9016 7.0956C11.9016 7.64196 11.4583 8.08656 10.9134 8.08656C10.3686 8.08656 9.92531 7.64196 9.92531 7.0956C9.92531 6.54905 10.3686 6.10445 10.9134 6.10445Z" fill="#AFAFAF"/>
<path d="M23.1265 0.208984H0.952319C0.470692 0.208984 0.0788574 0.601964 0.0788574 1.085V19.9089C0.0788574 20.3919 0.470692 20.7849 0.952319 20.7849H23.1265C23.6081 20.7849 23.9999 20.3919 23.9999 19.9089V1.085C23.9999 0.601964 23.6081 0.208984 23.1265 0.208984ZM22.5983 1.61471V12.7389L18.1901 8.31769C17.9027 8.02996 17.4353 8.03014 17.148 8.31824L10.9135 14.571L6.93113 10.5771C6.79188 10.4373 6.60664 10.3602 6.40954 10.3602C6.21261 10.3602 6.02756 10.4371 5.88831 10.5767L1.48048 14.9974V1.61471H22.5983ZM1.48048 19.3792V16.9854L6.40954 12.0419L10.3918 16.0358C10.5312 16.1756 10.7164 16.2529 10.9135 16.2529C11.1103 16.2529 11.2955 16.1758 11.4346 16.0362L17.6693 9.78327L22.5985 14.7269V19.3792H1.48048Z" fill="#AFAFAF"/>
</svg>
