<svg width="14" height="14" viewBox="0 0 14 14" fill="none" xmlns="http://www.w3.org/2000/svg">
<path d="M9.77531 0H3.62821C1.62758 0 0 1.62758 0 3.62821V9.77542C0 11.7759 1.62758 13.4035 3.62821 13.4035H9.77542C11.7759 13.4035 13.4035 11.7759 13.4035 9.77542V3.62821C13.4035 1.62758 11.7759 0 9.77531 0V0ZM6.70176 10.3667C4.68089 10.3667 3.03684 8.72264 3.03684 6.70176C3.03684 4.68089 4.68089 3.03684 6.70176 3.03684C8.72264 3.03684 10.3667 4.68089 10.3667 6.70176C10.3667 8.72264 8.72264 10.3667 6.70176 10.3667ZM10.4543 3.90115C9.85712 3.90115 9.37138 3.41541 9.37138 2.8182C9.37138 2.221 9.85712 1.73516 10.4543 1.73516C11.0515 1.73516 11.5374 2.221 11.5374 2.8182C11.5374 3.41541 11.0515 3.90115 10.4543 3.90115Z" fill="#737373"/>
<path fill-rule="evenodd" clip-rule="evenodd" d="M6.70242 9.70128C8.35918 9.70128 9.70226 8.35821 9.70226 6.70144C9.70226 5.04468 8.35918 3.70161 6.70242 3.70161C5.04566 3.70161 3.70258 5.04468 3.70258 6.70144C3.70258 8.35821 5.04566 9.70128 6.70242 9.70128ZM6.70242 10.8502C8.99369 10.8502 10.8511 8.99271 10.8511 6.70144C10.8511 4.41017 8.99369 2.55273 6.70242 2.55273C4.41115 2.55273 2.55371 4.41017 2.55371 6.70144C2.55371 8.99271 4.41115 10.8502 6.70242 10.8502Z" fill="#737373"/>
</svg>
