<svg width="20" height="19" viewBox="0 0 20 19" xmlns="http://www.w3.org/2000/svg">
<path d="M1.04483 12.4635L4.20117 18.0469C4.26264 18.1559 4.37818 18.2236 4.50366 18.2236L15.8029 18.2236C15.8142 18.2236 15.8248 18.2229 15.8345 18.2218C15.8445 18.2229 15.8551 18.2236 15.8664 18.2236L18.7549 18.2236C18.946 18.2236 19.1016 18.0681 19.1016 17.877L19.1016 7.01662C19.1016 6.82552 18.946 6.67 18.7549 6.67L15.8664 6.67C15.8551 6.67 15.8447 6.67069 15.8348 6.67185C15.8248 6.67069 15.8142 6.67 15.8029 6.67L13.9339 6.67L9.9833 1.62756C9.95442 1.59059 9.91906 1.56032 9.87886 1.5379C9.78018 1.4829 8.89491 1.00087 8.18086 1.00087C7.63574 1.00087 7.27502 1.28602 7.1916 1.78331C7.0042 2.89435 7.13106 5.80668 7.1745 6.67L1.34685 6.67C1.15551 6.67 1.00023 6.82552 1.00023 7.01662L1.00023 12.2929C1.00023 12.3525 1.01548 12.4115 1.04483 12.4635ZM16.213 7.36325L18.4083 7.36325L18.4083 17.5304L16.213 17.5304L16.213 7.36325ZM1.69347 7.36324L7.4176 7.36324C7.67272 7.36324 7.87976 7.15319 7.8793 6.88121C7.87745 6.844 7.67526 3.08291 7.87514 1.89816C7.89455 1.78262 7.92922 1.69411 8.18063 1.69411C8.55036 1.69411 9.10219 1.9141 9.48209 2.11214L13.3689 7.07278C13.3959 7.23731 13.539 7.36325 13.7109 7.36325L15.456 7.36325L15.456 17.5304L4.70562 17.5304L1.69347 12.2014L1.69347 7.36324Z" />
<path fill-rule="evenodd" clip-rule="evenodd" d="M0.871825 12.562C0.825305 12.4795 0.801396 12.3867 0.801396 12.2931L0.801396 7.01682C0.801396 6.71534 1.04614 6.47019 1.34802 6.47019L6.96572 6.47019C6.94279 5.98249 6.90952 5.16426 6.89768 4.32256C6.884 3.35079 6.89833 2.32667 6.99556 1.75024C7.04433 1.45973 7.1774 1.21722 7.39021 1.04893C7.60167 0.881701 7.87487 0.801061 8.18204 0.801061C8.57717 0.801061 9.00518 0.932721 9.33519 1.06291C9.66933 1.19472 9.92378 1.33351 9.9774 1.3634C10.0411 1.39894 10.0969 1.44683 10.1421 1.50463L14.0324 6.4702L15.804 6.4702C15.815 6.4702 15.8256 6.47058 15.8359 6.47126C15.846 6.47058 15.8566 6.4702 15.8676 6.4702L18.7561 6.4702C19.0577 6.4702 19.3027 6.71526 19.3027 7.01682L19.3027 17.8772C19.3027 18.1788 19.0577 18.4238 18.7561 18.4238L15.8676 18.4238C15.8566 18.4238 15.846 18.4234 15.8358 18.4228C15.8255 18.4235 15.8149 18.4238 15.804 18.4238L4.50483 18.4238C4.30703 18.4238 4.12496 18.3171 4.02811 18.1452L0.871825 12.562ZM4.401 18.1452C4.41093 18.1464 15.8563 18.2238 15.8676 18.2238L18.7561 18.2238C18.9472 18.2238 19.1027 18.0683 19.1027 17.8772L19.1027 7.01682C19.1027 6.82571 18.9472 6.6702 18.7561 6.6702L15.8676 6.6702C15.8563 6.6702 15.8459 6.67089 15.8359 6.67204C15.826 6.67089 15.8154 6.6702 15.804 6.6702L13.9351 6.6702L9.98448 1.62776C9.95559 1.59078 9.92024 1.56051 9.88003 1.53809C9.78136 1.4831 8.89608 1.00106 8.18204 1.00106C7.63691 1.00106 7.2762 1.28622 7.19278 1.78351C7.01793 2.8201 7.11664 5.42465 7.16594 6.47019C7.16948 6.54529 7.17276 6.61234 7.17568 6.67019L1.34802 6.67019C1.15668 6.67019 1.0014 6.82571 1.0014 7.01682L1.0014 12.2931C1.0014 12.3527 1.01665 12.4117 1.046 12.4636M7.88048 6.8814C7.88094 7.15339 7.67389 7.36344 7.41877 7.36344L1.69464 7.36344L1.69464 12.2016L4.7068 17.5306L15.4572 17.5306L15.4572 7.36344L13.7121 7.36344C13.5401 7.36344 13.3971 7.2375 13.3701 7.07297L9.48326 2.11233C9.10336 1.9143 8.55154 1.69431 8.18181 1.69431C7.93039 1.69431 7.89573 1.78281 7.87632 1.89835C7.68026 3.06038 7.87102 6.70084 7.88015 6.87519C7.88033 6.8786 7.88048 6.8814 7.88048 6.8814ZM9.35279 2.2701C9.17763 2.1809 8.96935 2.08899 8.76362 2.01816C8.53913 1.94088 8.33356 1.89431 8.18181 1.89431C8.12956 1.89431 8.09831 1.89903 8.081 1.90352L8.07905 1.90405C8.07755 1.91016 8.07564 1.91903 8.07355 1.93149C7.97746 2.50106 7.97676 3.71657 8.00269 4.81549C8.02742 5.86344 8.0754 6.77926 8.0799 6.86519C8.08008 6.86864 8.08023 6.87148 8.08023 6.87148L8.0807 6.88106C8.08134 7.25743 7.79058 7.56344 7.41877 7.56344L1.89464 7.56344L1.89464 12.149L4.82349 17.3306L15.2572 17.3306L15.2572 7.56344L13.7121 7.56344C13.46 7.56344 13.2482 7.39247 13.1848 7.16081L9.35279 2.2701ZM18.2095 7.56344L16.4142 7.56344L16.4142 17.3306L18.2095 17.3306L18.2095 7.56344ZM16.2142 7.36344L16.2142 17.5306L18.4095 17.5306L18.4095 7.36344L16.2142 7.36344Z" />
</svg>
