<?xml version="1.0" encoding="utf-8"?>
<!-- Generator: Adobe Illustrator 21.0.0, SVG Export Plug-In . SVG Version: 6.00 Build 0)  -->
<svg version="1.1" id="Icons" xmlns="http://www.w3.org/2000/svg" xmlns:xlink="http://www.w3.org/1999/xlink" x="0px" y="0px"
	 viewBox="0 0 14 17" style="enable-background:new 0 0 14 17;" xml:space="preserve">
<g>
	<path d="M7,1.6c3,0,5.4,2.5,5.4,5.5c0,1.4-0.6,2.9-1.6,3.9L7,14.8l-3.9-3.9C2.1,9.9,1.6,8.4,1.6,7C1.6,4,4,1.6,7,1.6 M7,0
		C3.1,0,0,3.2,0,7c0,1.9,0.8,3.7,2,5l5,5l5-5c1.2-1.3,2-3.1,2-5C14,3.2,10.9,0,7,0L7,0z"/>
</g>
<path d="M7,5.8c0.6,0,1.2,0.5,1.2,1.2c0,0.6-0.5,1.2-1.2,1.2S5.8,7.6,5.8,7S6.4,5.8,7,5.8 M7,4.3C5.5,4.3,4.3,5.5,4.3,7
	S5.5,9.7,7,9.7S9.7,8.5,9.7,7S8.5,4.3,7,4.3L7,4.3z"/>
</svg>
