<svg width="137" height="40" viewBox="0 0 137 40" fill="none" xmlns="http://www.w3.org/2000/svg">
<path fill-rule="evenodd" clip-rule="evenodd" d="M13.5484 24.0445L11.6114 19.3244L9.03676 16.0459L4.5249 24.0445L6.26032 28.9534L9.03676 32.0434L11.9502 28.4422L13.5484 24.0445V24.0445Z" fill="#1CA9FA"/>
<path fill-rule="evenodd" clip-rule="evenodd" d="M22.5557 24.0445L24.3609 19.2625L27.0675 16.0459L31.5791 24.0445L30.0247 28.3016L27.0675 32.0434L24.3609 28.3016L22.5557 24.0445V24.0445Z" fill="#B717FF"/>
<path fill-rule="evenodd" clip-rule="evenodd" d="M22.5638 7.99888L18.0522 0L13.5405 7.99888L15.1309 12.7867L18.0522 15.9978L21.0183 12.7867L22.5638 7.99888V7.99888Z" fill="#084AEC"/>
<path fill-rule="evenodd" clip-rule="evenodd" d="M18.0384 32.0008L13.5268 24.002L9.01514 32.0008L13.5268 39.9997L18.0384 32.0008Z" fill="#197DFF"/>
<path fill-rule="evenodd" clip-rule="evenodd" d="M18.0384 16.0223L13.5268 8.02344L9.01514 16.0223L13.5268 24.021L18.0384 16.0223Z" fill="#197DFF"/>
<path fill-rule="evenodd" clip-rule="evenodd" d="M9.02348 32.0008L4.51163 24.002L0 32.0008L4.51163 39.9997L9.02348 32.0008Z" fill="#4ED3FF"/>
<path fill-rule="evenodd" clip-rule="evenodd" d="M18.0645 16.0223L22.5761 8.02344L27.0879 16.0223L22.5761 24.021L18.0645 16.0223V16.0223Z" fill="#7E20FF"/>
<path fill-rule="evenodd" clip-rule="evenodd" d="M27.0801 32.0008L31.5917 24.002L36.1033 32.0008L31.5917 39.9997L27.0801 32.0008Z" fill="#FA28F6"/>
<path fill-rule="evenodd" clip-rule="evenodd" d="M27.0879 32.0008L22.5761 24.002L18.0645 32.0008L22.5761 39.9997L27.0879 32.0008Z" fill="#7E20FF"/>
<path fill-rule="evenodd" clip-rule="evenodd" d="M123.502 35.8535H119.554V28.3246L114.047 31.0853C113.68 31.2678 113.207 31.4206 112.803 31.4206H112.001C111.352 31.4206 110.73 31.1615 110.272 30.7003C109.813 30.2389 109.556 29.6134 109.556 28.9609V17.9567H113.509V27.4475L119.554 24.4171V17.9567H123.502V35.8535V35.8535ZM46.5685 31.2404C46.2251 31.3804 45.8512 31.4517 45.4586 31.4802H45.0429C44.2302 31.4802 43.4708 31.0743 43.0162 30.3968C42.5616 29.7192 42.4712 28.859 42.775 28.1009L49.8773 10.3838H54.44L62.897 31.4802H58.3341L56.5927 27.1362L46.5685 31.2404V31.2404ZM92.1025 31.4206H88.2793V28.5902L83.2248 31.1242C82.8907 31.2865 82.4476 31.4186 82.1206 31.4206H81.089C80.4406 31.4206 79.8185 31.1615 79.36 30.7003C78.9015 30.2389 78.6438 29.6134 78.6438 28.9609C78.6438 26.9514 78.6438 24.0691 78.6438 21.7197C78.6438 20.6451 79.0682 19.6146 79.8235 18.8547C80.5277 18.1463 81.4658 17.7275 82.4553 17.6738V17.6681H92.1025V31.4206ZM107.543 31.4206H105.237H97.989H96.5293C95.8809 31.4206 95.2588 31.1615 94.8003 30.7003C94.3415 30.2389 94.0839 29.6134 94.0839 28.9609V17.6681H103.636V10.5099H107.543V31.4206V31.4206ZM67.6992 31.4206H63.7732V17.6681H67.6992V19.7702L72.2465 17.8338C72.5407 17.7146 72.8137 17.6681 73.1399 17.6681H74.0148C74.7067 17.6681 75.3702 17.9445 75.8594 18.4365C76.3488 18.9286 76.6236 19.5962 76.6236 20.2921V31.4206H72.6379V21.5029L67.6992 23.6056V31.4206V31.4206ZM129.494 31.4206H125.538V17.9567H129.494V20.1283L132.346 18.6986C133.17 18.2858 134.123 18.2188 134.996 18.5127C135.868 18.8066 136.589 19.4372 137 20.2657C137 20.2661 137 20.2663 137 20.2663L129.494 24.0291V31.4206V31.4206ZM103.636 21.5121H98.0913V27.454H103.636V21.5121ZM88.2793 21.5121H82.6725V27.4116L88.2793 24.601V21.5121V21.5121ZM47.7697 27.0236L55.3101 23.9363L52.1587 16.0751L47.7697 27.0236Z" fill="#002B88"/>
</svg>
