<?xml version="1.0" encoding="utf-8"?>
<!-- Generator: Adobe Illustrator 21.0.0, SVG Export Plug-In . SVG Version: 6.00 Build 0)  -->
<svg version="1.1" id="Layer_1" xmlns="http://www.w3.org/2000/svg" xmlns:xlink="http://www.w3.org/1999/xlink" x="0px" y="0px"
	 viewBox="0 0 14 14" style="enable-background:new 0 0 14 14;" xml:space="preserve">
<path d="M13.8,12.8L13.8,12.8C13.8,12.8,13.8,12.8,13.8,12.8L8,7l5.8-5.8c0,0,0,0,0,0l0,0l0,0C13.9,1.1,14,0.9,14,0.7
	C14,0.3,13.7,0,13.3,0c-0.2,0-0.4,0.1-0.5,0.2l0,0l0,0c0,0,0,0,0,0L7,6L1.2,0.2l0,0C1.1,0.1,0.9,0,0.7,0C0.3,0,0,0.3,0,0.7
	c0,0.2,0.1,0.4,0.2,0.5l0,0L6,7l-5.8,5.8c0,0,0,0,0,0l0,0l0,0C0.1,13,0,13.1,0,13.3C0,13.7,0.3,14,0.7,14c0.2,0,0.4-0.1,0.5-0.2l0,0
	L7,8l5.8,5.8l0,0c0.1,0.1,0.3,0.2,0.5,0.2c0.4,0,0.7-0.3,0.7-0.7C14,13.1,13.9,12.9,13.8,12.8L13.8,12.8z"/>
</svg>
