<?xml version="1.0" encoding="utf-8"?>
<!-- Generator: Adobe Illustrator 21.0.0, SVG Export Plug-In . SVG Version: 6.00 Build 0)  -->
<svg version="1.1" id="Layer_1" xmlns="http://www.w3.org/2000/svg" xmlns:xlink="http://www.w3.org/1999/xlink" x="0px" y="0px"
	 viewBox="0 0 14 13" style="enable-background:new 0 0 14 13;" xml:space="preserve">
<style type="text/css">
	.st0{opacity:0.9;}
</style>
<g id="Page-1">
	<g id="Core" transform="translate(-464.000000, -254.000000)" class="st0">
		<g id="history" transform="translate(464.000000, 254.500000)">
			<path id="Shape" d="M7.3-0.5c-2.4,0-4.6,1.3-5.7,3.3L0,1.2v4.4h4.6l-2-1.9C3.5,2,5.2,0.9,7.3,0.9c2.9,0,5.3,2.3,5.3,5.1
				s-2.4,5.1-5.3,5.1c-2.3,0-4.2-1.4-5-3.4H0.9c0.8,2.7,3.4,4.8,6.4,4.8c3.7,0,6.7-2.9,6.7-6.5S11-0.5,7.3-0.5L7.3-0.5z M6.3,2.9
				v3.5l3.3,1.9l0.6-0.9L7.3,5.8V2.9H6.3L6.3,2.9z"/>
		</g>
	</g>
</g>
</svg>
