<?xml version="1.0" encoding="utf-8"?>
<!-- Generator: Adobe Illustrator 21.0.0, SVG Export Plug-In . SVG Version: 6.00 Build 0)  -->
<svg version="1.1" id="Layer_1" xmlns="http://www.w3.org/2000/svg" xmlns:xlink="http://www.w3.org/1999/xlink" x="0px" y="0px"
	 viewBox="0 0 17 12" style="enable-background:new 0 0 17 12;" xml:space="preserve">
<style type="text/css">
	.st0{fill:#231F20;}
</style>
<g>
	<g>
		<g>
			<path class="st0" d="M14.1,1.6C15.2,0.7,14.9,0,13.5,0H3.5C2.1,0,1.8,0.7,2.9,1.6l3.5,2.7c1.1,0.9,3,0.9,4.1,0L14.1,1.6z"/>
		</g>
		<g>
			<path class="st0" d="M11.3,6.1c-1.1,0.9-2.1,1.6-2.1,1.6c0,0,0,0,0,0C9.1,7.7,9,7.7,8.9,7.8c0,0-0.1,0-0.1,0c-0.1,0-0.2,0-0.3,0
				c0,0,0,0,0,0c0,0,0,0,0,0l0,0c0,0,0,0,0,0c-0.1,0-0.2,0-0.3,0c0,0-0.1,0-0.1,0C8,7.7,7.9,7.7,7.9,7.6c0,0,0,0,0,0
				c0,0-1-0.7-2.1-1.6L2.1,3.3C0.9,2.4,0,2.8,0,4.1v5.4C0,10.9,1.2,12,2.7,12h11.6c1.5,0,2.7-1.1,2.7-2.4V4.1c0-1.3-0.9-1.7-2.1-0.9
				L11.3,6.1z"/>
		</g>
	</g>
</g>
</svg>
