<?xml version="1.0" encoding="utf-8"?>
<!-- Generator: Adobe Illustrator 21.0.0, SVG Export Plug-In . SVG Version: 6.00 Build 0)  -->
<svg version="1.1" id="Layer_1" xmlns="http://www.w3.org/2000/svg" xmlns:xlink="http://www.w3.org/1999/xlink" x="0px" y="0px"
	 viewBox="0 0 20 8" style="enable-background:new 0 0 20 8;" xml:space="preserve">
<path d="M20,1c0,0.5-0.5,1-1,1H1C0.4,2,0,1.5,0,1l0,0c0-0.6,0.4-1,1-1h18C19.5,0,20,0.4,20,1L20,1z"/>
<path d="M20,7c0,0.6-0.5,1-1,1H1C0.4,8,0,7.6,0,7l0,0c0-0.6,0.4-1,1-1h18C19.5,6,20,6.4,20,7L20,7z"/>
</svg>
