<?xml version="1.0" encoding="utf-8"?>
<!-- Generator: Adobe Illustrator 21.0.0, SVG Export Plug-In . SVG Version: 6.00 Build 0)  -->
<svg version="1.1" id="Layer_1" xmlns="http://www.w3.org/2000/svg" xmlns:xlink="http://www.w3.org/1999/xlink" x="0px" y="0px"
	 viewBox="0 0 14 14" style="enable-background:new 0 0 14 14;" xml:space="preserve">
<g id="Page-1">
	<g id="Icons-Communication" transform="translate(-85.000000, -126.000000)">
		<g id="phone" transform="translate(85.000000, 126.000000)">
			<path id="Shape" d="M2.8,6.1c1.1,2.2,3,4,5.1,5.1l1.7-1.7c0.2-0.2,0.5-0.3,0.8-0.2c0.9,0.3,1.8,0.5,2.8,0.5
				c0.5,0,0.8,0.3,0.8,0.8v2.6c0,0.5-0.3,0.8-0.8,0.8C5.9,14,0,8.1,0,0.8C0,0.3,0.3,0,0.8,0h2.7C4,0,4.3,0.3,4.3,0.8
				c0,0.9,0.2,1.9,0.5,2.8c0.1,0.2,0,0.5-0.2,0.8L2.8,6.1L2.8,6.1z"/>
		</g>
	</g>
</g>
</svg>
