<?xml version="1.0" encoding="utf-8"?>
<!-- Generator: Adobe Illustrator 21.0.0, SVG Export Plug-In . SVG Version: 6.00 Build 0)  -->
<svg version="1.1" id="Layer_1" xmlns="http://www.w3.org/2000/svg" xmlns:xlink="http://www.w3.org/1999/xlink" x="0px" y="0px"
	 viewBox="0 0 12 12" style="enable-background:new 0 0 12 12;" xml:space="preserve">
<path d="M11.8,11L11.8,11L8.7,8C9.4,7.2,9.8,6,9.8,4.9C9.9,2.1,7.6,0,4.9,0C2.3,0,0,2.1,0,4.9s2.1,4.9,4.9,4.9
	c1.1,0,2.3-0.4,3.1-1.1l3.1,3.1l0,0c0.1,0.1,0.2,0.2,0.4,0.2c0.3,0,0.5-0.2,0.5-0.5C12,11.3,11.9,11.1,11.8,11z M4.9,8.7
	C2.8,8.7,1.1,7,1.1,4.9c0-2.1,1.7-3.8,3.7-3.8c2.1,0,3.8,1.7,3.8,3.8C8.7,7,6.9,8.7,4.9,8.7z"/>
</svg>
