<?xml version="1.0" encoding="utf-8"?>
<!-- Generator: Adobe Illustrator 21.0.0, SVG Export Plug-In . SVG Version: 6.00 Build 0)  -->
<svg version="1.1" id="Layer_1" xmlns="http://www.w3.org/2000/svg" xmlns:xlink="http://www.w3.org/1999/xlink" x="0px" y="0px"
	 viewBox="0 0 15 12" style="enable-background:new 0 0 15 12;" xml:space="preserve">
<g>
	<path d="M7.5,5.8c1.6,0,2.9-1.3,2.9-2.9S9.2,0,7.5,0S4.6,1.4,4.6,3C4.6,4.5,5.9,5.8,7.5,5.8z M7.5,1.3C8.4,1.3,9.2,2,9.2,3
		S8.4,4.6,7.5,4.6S5.8,3.9,5.8,3S6.6,1.3,7.5,1.3z"/>
	<path d="M14.9,11.3c0-0.1-1.8-4.2-7.5-4.2S0,11.3,0,11.3c-0.1,0.3,0.1,0.6,0.4,0.7c0.1,0,0.2,0,0.3,0c0.3,0,0.5-0.2,0.6-0.4
		c0.1-0.2,1.5-3.4,6.3-3.4s6.2,3.3,6.3,3.4c0.1,0.2,0.3,0.4,0.6,0.4c0.1,0,0.2,0,0.3,0C14.9,11.9,15.1,11.6,14.9,11.3z"/>
</g>
</svg>
