<svg width="15" height="15" viewBox="0 0 15 15" fill="none" xmlns="http://www.w3.org/2000/svg">
<path d="M14.3551 2.49354L12.062 0.200497C11.9332 0.0720971 11.7587 0 11.5768 0C11.3949 0 11.2204 0.0720971 11.0916 0.200497L0.261498 11.0306C0.136356 11.154 0.0644085 11.3215 0.0610036 11.4973L0.000349912 13.8476C-0.00258624 13.9395 0.0129803 14.031 0.0461241 14.1167C0.079268 14.2025 0.129313 14.2807 0.193283 14.3467C0.257253 14.4127 0.333843 14.4652 0.418499 14.501C0.503156 14.5368 0.59415 14.5553 0.686074 14.5552H0.707977L3.06673 14.4946C3.24249 14.4912 3.40997 14.4192 3.53343 14.2941L14.3551 3.464C14.4835 3.33516 14.5556 3.16067 14.5556 2.97877C14.5556 2.79687 14.4835 2.62239 14.3551 2.49354ZM2.78368 13.086L1.43582 13.1197L1.46952 11.7719L9.26689 3.97282L9.46907 4.16826L10.5811 5.28867L2.78368 13.086ZM11.5448 4.32495L11.351 4.12951L10.2306 3.01079L11.5448 1.69494L12.8606 3.01079L11.5448 4.32495Z" fill="#737373"/>
</svg>
