<svg width="32" height="33" viewBox="0 0 32 33" fill="none" xmlns="http://www.w3.org/2000/svg">
<path d="M1 5.50001H31C31.5523 5.50001 32 5.05231 32 4.5C32 3.9477 31.5523 3.5 31 3.5H1C0.4477 3.5 0 3.9477 0 4.5C0 5.05231 0.4477 5.50001 1 5.50001Z" fill="white"/>
<path d="M31 11.5H1C0.4477 11.5 0 11.9477 0 12.5C0 13.0523 0.4477 13.5 1 13.5H31C31.5523 13.5 32 13.0523 32 12.5C32 11.9477 31.5523 11.5 31 11.5Z" fill="white"/>
<path d="M31 19.5H1C0.4477 19.5 0 19.9477 0 20.5C0 21.0523 0.4477 21.5 1 21.5H31C31.5523 21.5 32 21.0523 32 20.5C32 19.9477 31.5523 19.5 31 19.5Z" fill="white"/>
<path d="M11 27.5H1C0.4477 27.5 0 27.9478 0 28.5C0 29.0522 0.4477 29.5 1 29.5H11C11.5523 29.5 12 29.0523 12 28.5C12 27.9477 11.5523 27.5 11 27.5Z" fill="white"/>
</svg>
