<svg width="13" height="13" viewBox="0 0 13 13" fill="none" xmlns="http://www.w3.org/2000/svg">
<path d="M9.71299 8.81507C10.4681 7.8653 10.8827 6.66324 10.8827 5.44635C10.8827 2.44863 8.43964 0 5.43394 0C2.42825 0 0 2.44863 0 5.44635C0 8.44406 2.44305 10.8927 5.43394 10.8927C6.63326 10.8927 7.83257 10.4772 8.79499 9.72032L12.0672 13L13 12.0651L9.71299 8.81507ZM5.43394 9.6016C3.16857 9.6016 1.31777 7.74658 1.31777 5.47603C1.31777 3.20548 3.16857 1.35046 5.43394 1.35046C7.69932 1.35046 9.55011 3.20548 9.55011 5.47603C9.55011 7.74658 7.69932 9.6016 5.43394 9.6016Z" fill="#737373"/>
</svg>
