<svg width="34" height="34" viewBox="0 0 34 34" fill="none" xmlns="http://www.w3.org/2000/svg">
<rect width="34" height="34" rx="2" fill="url(#paint0_linear)"/>
<path d="M20.4916 9.79883H14.3445C12.3439 9.79883 10.7163 11.4184 10.7163 13.4091V19.526C10.7163 21.5167 12.3439 23.1362 14.3445 23.1362H20.4918C22.4923 23.1362 24.1199 21.5167 24.1199 19.526V13.4091C24.1199 11.4184 22.4923 9.79883 20.4916 9.79883V9.79883ZM17.4181 20.1144C15.3972 20.1144 13.7532 18.4784 13.7532 16.4675C13.7532 14.4566 15.3972 12.8207 17.4181 12.8207C19.439 12.8207 21.083 14.4566 21.083 16.4675C21.083 18.4784 19.439 20.1144 17.4181 20.1144V20.1144ZM21.1707 13.6807C20.5735 13.6807 20.0877 13.1974 20.0877 12.6031C20.0877 12.0089 20.5735 11.5254 21.1707 11.5254C21.7679 11.5254 22.2537 12.0089 22.2537 12.6031C22.2537 13.1974 21.7679 13.6807 21.1707 13.6807Z" fill="white"/>
<path fill-rule="evenodd" clip-rule="evenodd" d="M17.4192 19.6173C19.076 19.6173 20.4191 18.2742 20.4191 16.6175C20.4191 14.9607 19.076 13.6176 17.4192 13.6176C15.7625 13.6176 14.4194 14.9607 14.4194 16.6175C14.4194 18.2742 15.7625 19.6173 17.4192 19.6173ZM17.4192 20.7662C19.7105 20.7662 21.5679 18.9087 21.5679 16.6175C21.5679 14.3262 19.7105 12.4688 17.4192 12.4688C15.1279 12.4688 13.2705 14.3262 13.2705 16.6175C13.2705 18.9087 15.1279 20.7662 17.4192 20.7662Z" fill="white"/>
<defs>
<linearGradient id="paint0_linear" x1="0.457519" y1="0.207032" x2="30.4575" y2="35.207" gradientUnits="userSpaceOnUse">
<stop stop-color="#4662CD"/>
<stop offset="0.354167" stop-color="#B83B99"/>
<stop offset="0.671875" stop-color="#FA5247"/>
<stop offset="1" stop-color="#FDDB55"/>
</linearGradient>
</defs>
</svg>
