<svg width="34" height="34" viewBox="0 0 34 34" fill="none" xmlns="http://www.w3.org/2000/svg">
<rect width="34" height="34" rx="2" fill="#F72293"/>
<path d="M20.0732 10.2979H13.9261C11.9254 10.2979 10.2979 11.9254 10.2979 13.9261V20.0733C10.2979 22.0738 11.9254 23.7014 13.9261 23.7014H20.0733C22.0738 23.7014 23.7014 22.0738 23.7014 20.0733V13.9261C23.7014 11.9254 22.0738 10.2979 20.0732 10.2979V10.2979ZM16.9996 20.6645C14.9787 20.6645 13.3347 19.0205 13.3347 16.9996C13.3347 14.9787 14.9787 13.3347 16.9996 13.3347C19.0205 13.3347 20.6645 14.9787 20.6645 16.9996C20.6645 19.0205 19.0205 20.6645 16.9996 20.6645ZM20.7522 14.199C20.155 14.199 19.6692 13.7133 19.6692 13.1161C19.6692 12.5189 20.155 12.033 20.7522 12.033C21.3494 12.033 21.8352 12.5189 21.8352 13.1161C21.8352 13.7133 21.3494 14.199 20.7522 14.199Z" fill="white"/>
<path fill-rule="evenodd" clip-rule="evenodd" d="M17.0005 19.9991C18.6573 19.9991 20.0003 18.6561 20.0003 16.9993C20.0003 15.3425 18.6573 13.9995 17.0005 13.9995C15.3437 13.9995 14.0007 15.3425 14.0007 16.9993C14.0007 18.6561 15.3437 19.9991 17.0005 19.9991ZM17.0005 21.148C19.2918 21.148 21.1492 19.2906 21.1492 16.9993C21.1492 14.708 19.2918 12.8506 17.0005 12.8506C14.7092 12.8506 12.8518 14.708 12.8518 16.9993C12.8518 19.2906 14.7092 21.148 17.0005 21.148Z" fill="white"/>
</svg>
