<svg width="34" height="34" viewBox="0 0 34 34" fill="none" xmlns="http://www.w3.org/2000/svg">
<rect width="34" height="34" rx="2" fill="#5181B8"/>
<path d="M26.3886 21.3644C26.3656 21.3149 26.3442 21.2738 26.3243 21.2409C25.995 20.6478 25.3657 19.9199 24.4369 19.0568L24.4172 19.0371L24.4074 19.0274L24.3975 19.0174H24.3875C23.9659 18.6156 23.699 18.3454 23.5872 18.207C23.3826 17.9435 23.3368 17.6767 23.4486 17.4065C23.5276 17.2022 23.8243 16.771 24.338 16.1121C24.6082 15.7629 24.8222 15.483 24.9802 15.2722C26.12 13.7569 26.6142 12.7886 26.4626 12.3669L26.4037 12.2684C26.3641 12.2091 26.262 12.1548 26.0975 12.1053C25.9326 12.0559 25.7219 12.0477 25.4649 12.0807L22.619 12.1003C22.5729 12.084 22.5071 12.0855 22.4213 12.1053C22.3356 12.1251 22.2928 12.135 22.2928 12.135L22.2433 12.1598L22.2039 12.1895C22.171 12.2092 22.1348 12.2437 22.0952 12.2932C22.0558 12.3424 22.0229 12.4002 21.9966 12.4661C21.6868 13.2632 21.3345 14.0044 20.9391 14.6895C20.6954 15.098 20.4715 15.452 20.2671 15.7518C20.0629 16.0514 19.8916 16.2722 19.7533 16.4138C19.6149 16.5554 19.49 16.6689 19.3777 16.7546C19.2657 16.8404 19.1802 16.8767 19.121 16.8634C19.0616 16.8501 19.0057 16.837 18.9528 16.8238C18.8606 16.7645 18.7865 16.6838 18.7306 16.5817C18.6744 16.4796 18.6366 16.3511 18.6169 16.1963C18.5972 16.0414 18.5856 15.9081 18.5823 15.7961C18.5792 15.6842 18.5806 15.5259 18.5873 15.3217C18.5941 15.1174 18.5972 14.9792 18.5972 14.9067C18.5972 14.6563 18.6021 14.3846 18.6119 14.0914C18.6219 13.7982 18.6299 13.566 18.6367 13.3948C18.6434 13.2236 18.6465 13.0423 18.6465 12.8513C18.6465 12.6602 18.6349 12.5104 18.6119 12.4016C18.5892 12.293 18.5543 12.1876 18.5084 12.0854C18.4622 11.9833 18.3946 11.9043 18.3058 11.8482C18.2169 11.7922 18.1064 11.7478 17.9748 11.7148C17.6256 11.6358 17.181 11.593 16.6406 11.5864C15.4154 11.5732 14.6281 11.6523 14.2789 11.8236C14.1406 11.896 14.0154 11.9949 13.9034 12.12C13.7848 12.265 13.7683 12.3441 13.8539 12.3571C14.2492 12.4163 14.5291 12.558 14.6938 12.7819L14.7532 12.9006C14.7993 12.9863 14.8454 13.1379 14.8916 13.3552C14.9377 13.5726 14.9674 13.813 14.9805 14.0764C15.0133 14.5574 15.0133 14.9691 14.9805 15.3117C14.9475 15.6543 14.9163 15.9211 14.8866 16.1121C14.8569 16.3032 14.8124 16.458 14.7532 16.5765C14.6938 16.6951 14.6543 16.7676 14.6345 16.7939C14.6148 16.8202 14.5983 16.8368 14.5852 16.8433C14.4996 16.8761 14.4105 16.8928 14.3184 16.8928C14.226 16.8928 14.1141 16.8466 13.9824 16.7544C13.8507 16.6621 13.714 16.5354 13.5723 16.3739C13.4307 16.2125 13.2709 15.9868 13.093 15.697C12.9152 15.4072 12.7307 15.0646 12.5396 14.6693L12.3816 14.3827C12.2828 14.1983 12.1478 13.9298 11.9765 13.5774C11.8051 13.2249 11.6536 12.8839 11.5219 12.5545C11.4692 12.4161 11.3902 12.3108 11.2848 12.2383L11.2353 12.2086C11.2024 12.1823 11.1496 12.1544 11.0772 12.1246C11.0047 12.0949 10.9291 12.0736 10.8499 12.0604L8.14232 12.0801C7.86564 12.0801 7.67791 12.1428 7.57906 12.268L7.5395 12.3272C7.51973 12.3602 7.50977 12.4129 7.50977 12.4854C7.50977 12.5578 7.52953 12.6468 7.56909 12.7521C7.96435 13.6811 8.39419 14.577 8.85861 15.44C9.32302 16.303 9.72659 16.9982 10.0691 17.5249C10.4116 18.052 10.7608 18.5495 11.1166 19.0171C11.4723 19.4848 11.7078 19.7846 11.823 19.9163C11.9384 20.0482 12.029 20.1469 12.0949 20.2127L12.342 20.4499C12.5001 20.608 12.7322 20.7974 13.0386 21.018C13.345 21.2388 13.6842 21.4562 14.0564 21.6705C14.4287 21.8844 14.8618 22.059 15.356 22.194C15.85 22.3292 16.3309 22.3834 16.7987 22.3572H17.9351C18.1656 22.3373 18.3402 22.2649 18.4589 22.1398L18.4982 22.0902C18.5247 22.0509 18.5494 21.9898 18.5723 21.9076C18.5954 21.8253 18.6069 21.7346 18.6069 21.6359C18.6001 21.3527 18.6217 21.0974 18.671 20.8702C18.7202 20.643 18.7764 20.4717 18.8392 20.3563C18.9019 20.2411 18.9727 20.1438 19.0515 20.065C19.1305 19.9859 19.1868 19.9381 19.2198 19.9216C19.2526 19.905 19.2788 19.8938 19.2986 19.887C19.4567 19.8343 19.6428 19.8854 19.8571 20.0403C20.0712 20.1951 20.2721 20.3863 20.4599 20.6135C20.6477 20.8409 20.8733 21.096 21.1368 21.3792C21.4004 21.6625 21.6309 21.8732 21.8285 22.0117L22.026 22.1303C22.158 22.2094 22.3293 22.2819 22.5401 22.3478C22.7506 22.4136 22.935 22.4301 23.0934 22.3971L25.623 22.3577C25.8732 22.3577 26.0679 22.3163 26.206 22.2341C26.3444 22.1517 26.4266 22.061 26.4531 21.9623C26.4795 21.8635 26.4809 21.7515 26.4581 21.6262C26.4347 21.5012 26.4116 21.4138 26.3886 21.3644Z" fill="white"/>
</svg>
