<svg width="34" height="35" viewBox="0 0 34 35" fill="none" xmlns="http://www.w3.org/2000/svg">
<rect x="-0.000488281" y="0.792969" width="34" height="34" rx="2" fill="url(#paint0_linear)"/>
<path d="M20.4912 10.5918H14.344C12.3434 10.5918 10.7158 12.2114 10.7158 14.2021V20.319C10.7158 22.3096 12.3434 23.9292 14.344 23.9292H20.4913C22.4918 23.9292 24.1194 22.3096 24.1194 20.319V14.2021C24.1194 12.2114 22.4918 10.5918 20.4912 10.5918V10.5918ZM17.4176 20.9073C15.3967 20.9073 13.7527 19.2714 13.7527 17.2605C13.7527 15.2496 15.3967 13.6137 17.4176 13.6137C19.4385 13.6137 21.0825 15.2496 21.0825 17.2605C21.0825 19.2714 19.4385 20.9073 17.4176 20.9073V20.9073ZM21.1702 14.4737C20.573 14.4737 20.0872 13.9904 20.0872 13.3961C20.0872 12.8018 20.573 12.3184 21.1702 12.3184C21.7674 12.3184 22.2532 12.8018 22.2532 13.3961C22.2532 13.9904 21.7674 14.4737 21.1702 14.4737Z" fill="white"/>
<path fill-rule="evenodd" clip-rule="evenodd" d="M17.4187 20.4103C19.0755 20.4103 20.4186 19.0672 20.4186 17.4104C20.4186 15.7537 19.0755 14.4106 17.4187 14.4106C15.762 14.4106 14.4189 15.7537 14.4189 17.4104C14.4189 19.0672 15.762 20.4103 17.4187 20.4103ZM17.4187 21.5591C19.71 21.5591 21.5674 19.7017 21.5674 17.4104C21.5674 15.1192 19.71 13.2617 17.4187 13.2617C15.1275 13.2617 13.27 15.1192 13.27 17.4104C13.27 19.7017 15.1275 21.5591 17.4187 21.5591Z" fill="white"/>
<defs>
<linearGradient id="paint0_linear" x1="0.45703" y1="1" x2="30.457" y2="36" gradientUnits="userSpaceOnUse">
<stop stop-color="#4662CD"/>
<stop offset="0.354167" stop-color="#B83B99"/>
<stop offset="0.671875" stop-color="#FA5247"/>
<stop offset="1" stop-color="#FDDB55"/>
</linearGradient>
</defs>
</svg>
