<svg width="34" height="35" viewBox="0 0 34 35" fill="none" xmlns="http://www.w3.org/2000/svg">
<rect x="-0.000488281" y="0.792969" width="34" height="34" rx="2" fill="#ECECEC"/>
<path d="M20.703 9.43652H18.4797C16.2272 9.43652 13.9543 11.0998 13.9543 14.8158C13.9543 16.7406 14.7702 18.2397 16.2655 19.0922L13.5285 24.0462C13.3987 24.2805 13.3954 24.5461 13.5194 24.7565C13.6405 24.9621 13.862 25.0848 14.1117 25.0848H15.4961C15.8107 25.0848 16.056 24.9328 16.1735 24.6665L18.7398 19.647H18.9271V24.4592C18.9271 24.7983 19.2132 25.0848 19.5519 25.0848H20.7615C21.1413 25.0848 21.4065 24.8196 21.4065 24.4398V10.1212C21.4066 9.71809 21.1173 9.43652 20.703 9.43652ZM18.9271 17.4173H18.5967C17.3157 17.4173 16.5509 16.3716 16.5509 14.6201C16.5509 12.4422 17.517 11.6663 18.4212 11.6663H18.9271V17.4173Z" fill="#F80000"/>
</svg>
