<svg width="34" height="34" viewBox="0 0 34 34" fill="none" xmlns="http://www.w3.org/2000/svg">
<rect width="34" height="34" rx="2" fill="#DA4C3D"/>
<path d="M13.6677 17.8655L13.1988 19.6075L11.4849 19.6436C10.9727 18.6982 10.6821 17.6166 10.6821 16.4672C10.6821 15.3558 10.9538 14.3077 11.4353 13.3848H11.4356L12.9615 13.6631L13.6299 15.1724C13.49 15.5782 13.4138 16.0139 13.4138 16.4672C13.4138 16.9592 13.5034 17.4306 13.6677 17.8655Z" fill="white"/>
<path d="M24.0365 15.2158C24.1138 15.6213 24.1542 16.04 24.1542 16.468C24.1542 16.9478 24.1035 17.4159 24.0069 17.8674C23.679 19.4039 22.8222 20.7455 21.6353 21.6949L21.6349 21.6946L19.713 21.597L19.441 19.9073C20.2285 19.4477 20.844 18.7285 21.1682 17.8674H17.5664V15.2158H21.2208H24.0365Z" fill="white"/>
<path d="M21.6346 21.6944L21.635 21.6948C20.4807 22.6181 19.0143 23.1705 17.418 23.1705C14.8528 23.1705 12.6226 21.7438 11.4849 19.6442L13.6678 17.8662C14.2366 19.3769 15.7011 20.4522 17.418 20.4522C18.156 20.4522 18.8474 20.2537 19.4407 19.9072L21.6346 21.6944Z" fill="white"/>
<path d="M21.7178 11.3077L19.5356 13.0854C18.9216 12.7035 18.1959 12.4829 17.4183 12.4829C15.6625 12.4829 14.1706 13.6076 13.6303 15.1725L11.4359 13.3848H11.4355C12.5566 11.2341 14.815 9.76465 17.4183 9.76465C19.0527 9.76465 20.5512 10.344 21.7178 11.3077Z" fill="white"/>
</svg>
