<svg width="34" height="34" viewBox="0 0 34 34" fill="none" xmlns="http://www.w3.org/2000/svg">
<rect width="34" height="34" rx="2" fill="#F08F1D"/>
<path d="M12.4947 17.0637C12.08 17.8789 12.5509 18.2686 13.6252 18.9343C14.5385 19.4986 15.8003 19.7049 16.6108 19.7875C16.2786 20.1068 17.8008 18.6428 13.4168 22.8596C12.4873 23.7506 13.9838 25.1802 14.9127 24.3081L17.4274 21.8827C18.3901 22.8089 19.3129 23.6965 19.9421 24.3115C20.8716 25.1869 22.3675 23.7696 21.448 22.863C21.379 22.7974 18.0403 19.5947 18.244 19.7908C19.0646 19.7083 20.3074 19.4898 21.2099 18.9377L21.2092 18.9371C22.2836 18.268 22.7544 17.8789 22.3458 17.0637C22.0989 16.601 21.4332 16.214 20.5469 16.8831C20.5469 16.8831 19.3501 17.7998 17.4199 17.7998C15.4891 17.7998 14.293 16.8831 14.293 16.8831C13.4074 16.2106 12.7389 16.601 12.4947 17.0637V17.0637Z" fill="white"/>
<path d="M17.4186 16.5632C19.7716 16.5632 21.693 14.7243 21.693 12.4606C21.693 10.1875 19.7716 8.34863 17.4186 8.34863C15.0649 8.34863 13.1436 10.1875 13.1436 12.4606C13.1436 14.7243 15.0649 16.5632 17.4186 16.5632ZM17.4186 10.4317C18.5748 10.4317 19.5179 11.3389 19.5179 12.4606C19.5179 13.5729 18.5748 14.4801 17.4186 14.4801C16.2624 14.4801 15.3193 13.5729 15.3193 12.4606C15.3186 11.3383 16.2617 10.4317 17.4186 10.4317V10.4317Z" fill="white"/>
</svg>
