<svg width="5" height="9" viewBox="0 0 5 9" fill="none" xmlns="http://www.w3.org/2000/svg">
<path fill-rule="evenodd" clip-rule="evenodd" d="M2.00637 4.49421L5 7.89961L3.94904 9L1.24195e-07 4.49421L3.94904 -9.18774e-08L5 1.10039L2.00637 4.49421Z" fill="white"/>
<path fill-rule="evenodd" clip-rule="evenodd" d="M2.00637 4.49421L5 7.89961L3.94904 9L1.24195e-07 4.49421L3.94904 -9.18774e-08L5 1.10039L2.00637 4.49421Z" fill="white"/>
<path fill-rule="evenodd" clip-rule="evenodd" d="M2.00637 4.49421L5 7.89961L3.94904 9L1.24195e-07 4.49421L3.94904 -9.18774e-08L5 1.10039L2.00637 4.49421Z" fill="white"/>
<path fill-rule="evenodd" clip-rule="evenodd" d="M2.00637 4.49421L5 7.89961L3.94904 9L1.24195e-07 4.49421L3.94904 -9.18774e-08L5 1.10039L2.00637 4.49421Z" fill="white"/>
</svg>
