<svg width="5" height="9" viewBox="0 0 5 9" fill="none" xmlns="http://www.w3.org/2000/svg">
<path fill-rule="evenodd" clip-rule="evenodd" d="M2.99363 4.49421L-6.1985e-07 7.89961L1.05095 9L5 4.49421L1.05096 9.18775e-08L-8.63428e-08 1.10039L2.99363 4.49421Z" fill="white"/>
<path fill-rule="evenodd" clip-rule="evenodd" d="M2.99363 4.49421L-6.1985e-07 7.89961L1.05095 9L5 4.49421L1.05096 9.18775e-08L-8.63428e-08 1.10039L2.99363 4.49421Z" fill="white"/>
<path fill-rule="evenodd" clip-rule="evenodd" d="M2.99363 4.49421L-6.1985e-07 7.89961L1.05095 9L5 4.49421L1.05096 9.18775e-08L-8.63428e-08 1.10039L2.99363 4.49421Z" fill="white"/>
<path fill-rule="evenodd" clip-rule="evenodd" d="M2.99363 4.49421L-6.1985e-07 7.89961L1.05095 9L5 4.49421L1.05096 9.18775e-08L-8.63428e-08 1.10039L2.99363 4.49421Z" fill="white"/>
</svg>
