<?xml version="1.0" encoding="utf-8"?>
<!-- Generator: Adobe Illustrator 22.1.0, SVG Export Plug-In . SVG Version: 6.00 Build 0)  -->
<svg version="1.1" id="Слой_1" xmlns="http://www.w3.org/2000/svg" xmlns:xlink="http://www.w3.org/1999/xlink" x="0px" y="0px"
	 width="30px" height="16px" viewBox="0 0 30 16" enable-background="new 0 0 30 16" xml:space="preserve">
<g>
	<path fill="none" d="M1,2h28c0.552,0,1-0.448,1-1c0-0.552-0.448-1-1-1H1C0.448,0,0,0.448,0,1C0,1.552,0.448,2,1,2z M29,7H1
		C0.448,7,0,7.448,0,8c0,0.552,0.448,1,1,1h28c0.552,0,1-0.448,1-1C30,7.448,29.552,7,29,7z M29,14H1c-0.552,0-1,0.448-1,1
		c0,0.552,0.448,1,1,1h28c0.552,0,1-0.448,1-1C30,14.448,29.552,14,29,14z"/>
</g>
</svg>
