<svg width="18" height="18" viewBox="0 0 18 18" xmlns="http://www.w3.org/2000/svg">
<path d="M10.382 6.71909C10.1806 6.51652 9.95734 6.33696 9.7163 6.18369C9.07785 5.77487 8.33563 5.55762 7.57751 5.55762C6.52526 5.55567 5.51576 5.97375 4.77301 6.71909L1.16966 10.3253C0.428164 11.0682 0.011407 12.0748 0.010743 13.1244C0.00934873 15.3147 1.7838 17.0915 3.97415 17.0929C5.02478 17.0965 6.03334 16.6804 6.77583 15.9371L9.75029 12.9626C9.80434 12.909 9.83451 12.8359 9.83408 12.7598C9.83319 12.6034 9.70561 12.4773 9.54915 12.4782H9.43585C8.8144 12.4804 8.19849 12.361 7.62285 12.1269C7.51679 12.0833 7.39489 12.1079 7.31409 12.1892L5.17529 14.3309C4.51115 14.995 3.43437 14.995 2.77022 14.3309C2.10608 13.6667 2.10608 12.5899 2.77022 11.9258L6.38775 8.31113C7.05136 7.64835 8.12639 7.64835 8.79 8.31113C9.23723 8.73203 9.93484 8.73203 10.382 8.31113C10.5744 8.11855 10.6911 7.86313 10.7107 7.59158C10.7313 7.26708 10.6117 6.94928 10.382 6.71909Z" />
<path d="M15.8469 1.25541C14.2981 -0.29347 11.7868 -0.29347 10.2379 1.25541L7.2663 4.2242C7.1847 4.3062 7.16117 4.42952 7.20681 4.53582C7.25193 4.64242 7.35736 4.71084 7.47309 4.70861H7.57789C8.19861 4.70748 8.81352 4.82776 9.38806 5.06273C9.49413 5.10638 9.61603 5.08175 9.69683 5.00041L11.8299 2.87012C12.4941 2.20598 13.5709 2.20598 14.235 2.87012C14.8992 3.53426 14.8992 4.61105 14.235 5.27519L11.5778 7.92953L11.5551 7.95503L10.626 8.87854C9.96237 9.54132 8.88735 9.54132 8.22374 8.87854C7.77651 8.45763 7.0789 8.45763 6.6317 8.87854C6.43807 9.07258 6.32131 9.33022 6.30309 9.60373C6.28237 9.92824 6.40205 10.246 6.6317 10.4763C6.95959 10.8055 7.34322 11.0741 7.76482 11.2694C7.82431 11.2978 7.8838 11.3204 7.94329 11.3459C8.00278 11.3714 8.06509 11.3912 8.12458 11.4139C8.18407 11.4366 8.24638 11.4564 8.30587 11.4734L8.47302 11.5187C8.58632 11.547 8.69965 11.5697 8.81578 11.5895C8.95567 11.6103 9.09656 11.6235 9.23788 11.6292H9.43617H9.45316L9.62313 11.6094C9.68544 11.6066 9.75061 11.5924 9.82427 11.5924H9.92058L10.116 11.5641L10.2067 11.5471L10.371 11.5131H10.4022C11.098 11.3383 11.7334 10.978 12.2407 10.4706L15.8468 6.8644C17.3958 5.31552 17.3958 2.80429 15.8469 1.25541Z" />
</svg>
