<svg width="17" height="17" viewBox="0 0 17 17" xmlns="http://www.w3.org/2000/svg">
<path d="M2.26162 0.902344H14.7574C15.5537 0.902344 16.1992 1.54786 16.1992 2.34416V14.8399C16.1992 15.6363 15.5537 16.2818 14.7574 16.2818H2.26162C1.46531 16.2818 0.819797 15.6363 0.819797 14.8399V2.34416C0.819797 1.54786 1.46531 0.902344 2.26162 0.902344ZM1.78101 10.3174L3.84281 8.25563C4.03028 8.06927 4.333 8.06927 4.52047 8.25563L7.06769 10.798L10.0907 7.77502C10.2782 7.58867 10.5809 7.58867 10.7684 7.77502L15.238 12.2399V2.34416C15.238 2.07872 15.0228 1.86356 14.7574 1.86356H2.26162C1.99617 1.86356 1.78101 2.07872 1.78101 2.34416V10.3174Z" />
<path d="M7.54791 3.30566C8.60963 3.30566 9.47034 4.16637 9.47034 5.22809C9.47034 6.28981 8.60963 7.15052 7.54791 7.15052C6.48619 7.15052 5.62548 6.28981 5.62548 5.22809C5.62548 4.16637 6.48619 3.30566 7.54791 3.30566ZM7.54791 6.18931C8.07877 6.18931 8.50912 5.75895 8.50912 5.22809C8.50912 4.69723 8.07877 4.26688 7.54791 4.26688C7.01705 4.26688 6.5867 4.69723 6.5867 5.22809C6.5867 5.75895 7.01705 6.18931 7.54791 6.18931Z" />
</svg>
