<?xml version="1.0" encoding="utf-8"?>
<!-- Generator: Adobe Illustrator 21.0.0, SVG Export Plug-In . SVG Version: 6.00 Build 0)  -->
<svg version="1.1" id="Layer_1" xmlns="http://www.w3.org/2000/svg" xmlns:xlink="http://www.w3.org/1999/xlink" x="0px" y="0px"
	 viewBox="0 0 21 9" style="enable-background:new 0 0 21 9;" xml:space="preserve">
<g>
	<path d="M0,0.3C0.1,0.1,0.3,0,0.6,0c3,0,6.1,0,9.1,0C10,0,10,0,10,0.3c0,2.8,0,5.6,0,8.5C10,9,10.1,9,9.8,9c-3,0-6.1,0-9.1,0
		C0.3,9,0.1,8.9,0,8.7C0,5.9,0,3.1,0,0.3z M5.4,4.5c0,0.5,0,1.1,0,1.6c0,0.3,0.2,0.5,0.5,0.5c0.5,0,1.1,0,1.6,0
		c0.3,0,0.5-0.2,0.5-0.5c0-1.1,0-2.1,0-3.2c0-0.3-0.2-0.5-0.5-0.5c-0.5,0-1.1,0-1.6,0c-0.4,0-0.5,0.2-0.5,0.5C5.4,3.5,5.4,4,5.4,4.5
		z M4.6,4.5c0-0.5,0-1.1,0-1.6c0-0.3-0.2-0.5-0.5-0.5c-0.6,0-1.1,0-1.7,0C2.1,2.4,2,2.6,2,2.9C2,3.9,2,5,2,6.1
		c0,0.3,0.2,0.4,0.5,0.4c0.6,0,1.1,0,1.7,0c0.3,0,0.5-0.2,0.5-0.5C4.6,5.6,4.6,5,4.6,4.5z"/>
	<path d="M21,8.7C20.9,8.9,20.7,9,20.4,9c-3.1,0-6.1,0-9.2,0C11,9,11,8.9,11,8.8c0-2.9,0-5.7,0-8.6C11,0,11,0,11.2,0
		c3.1,0,6.2,0,9.3,0c0.3,0,0.4,0.1,0.5,0.3C21,3.1,21,5.9,21,8.7z M15.6,4.5c0-0.5,0-1.1,0-1.6c0-0.3-0.2-0.5-0.5-0.5
		c-0.5,0-1.1,0-1.6,0c-0.4,0-0.5,0.2-0.5,0.5c0,1.1,0,2.1,0,3.2c0,0.3,0.2,0.5,0.5,0.5c0.5,0,1.1,0,1.6,0c0.4,0,0.5-0.2,0.5-0.5
		C15.6,5.5,15.6,5,15.6,4.5z M19,4.5c0-0.5,0-1.1,0-1.6c0-0.3-0.2-0.5-0.5-0.5c-0.6,0-1.1,0-1.7,0c-0.3,0-0.5,0.2-0.5,0.5
		c0,1.1,0,2.1,0,3.2c0,0.3,0.2,0.5,0.5,0.5c0.6,0,1.1,0,1.7,0c0.3,0,0.5-0.2,0.5-0.5C19,5.6,19,5,19,4.5z"/>
	<path d="M7.2,3.7c0,0.4,0,0.4-0.4,0.4c-0.4,0-0.4,0-0.4-0.4c0-0.4,0-0.4,0.4-0.4c0,0,0,0,0,0C7.2,3.3,7.2,3.3,7.2,3.7z"/>
	<path d="M7.2,5.3c0,0.4,0,0.4-0.4,0.4c-0.4,0-0.4,0-0.4-0.4c0-0.4-0.1-0.4,0.4-0.4c0,0,0,0,0,0C7.2,4.9,7.2,4.9,7.2,5.3z"/>
	<path d="M3.7,4.5c0,0.3,0,0.7,0,1c0,0.1,0,0.2-0.2,0.2c-0.2,0-0.3,0-0.5,0c-0.1,0-0.1,0-0.1-0.1c0-0.7,0-1.4,0-2.2
		c0-0.1,0-0.1,0.1-0.1c0.7-0.1,0.7-0.1,0.7,0.6C3.7,4.1,3.7,4.3,3.7,4.5C3.7,4.5,3.7,4.5,3.7,4.5z"/>
	<path d="M13.8,4.5c0-0.3,0-0.7,0-1c0-0.1,0-0.2,0.2-0.2c0.2,0,0.4,0,0.5,0c0.1,0,0.1,0,0.1,0.1c0,0.7,0,1.4,0,2.2
		c0,0.1,0,0.1-0.1,0.1c-0.2,0-0.4,0-0.5,0c-0.1,0-0.2,0-0.2-0.2C13.8,5.2,13.8,4.8,13.8,4.5z"/>
	<path d="M18.1,4.5c0,0.3,0,0.7,0,1c0,0.1,0,0.2-0.2,0.2c-0.2,0-0.4,0.1-0.6,0c-0.1-0.1,0-0.4,0-0.5c0-0.5,0-1.1,0-1.6
		c0-0.2,0-0.2,0.2-0.2c0.2,0,0.4-0.1,0.6,0c0.1,0.1,0,0.3,0,0.5C18.1,4.1,18.1,4.3,18.1,4.5z"/>
</g>
</svg>
