<svg width="15" height="15" viewBox="0 0 15 15" fill="none" xmlns="http://www.w3.org/2000/svg">
<g clip-path="url(#clip0)">
<path d="M9.56906 5.43457C9.37503 5.43457 9.21777 5.59183 9.21777 5.78586V12.4252C9.21777 12.6191 9.37503 12.7765 9.56906 12.7765C9.76309 12.7765 9.92035 12.6191 9.92035 12.4252V5.78586C9.92035 5.59183 9.76309 5.43457 9.56906 5.43457Z" fill="#D74343"/>
<path d="M5.4238 5.43457C5.22977 5.43457 5.07251 5.59183 5.07251 5.78586V12.4252C5.07251 12.6191 5.22977 12.7765 5.4238 12.7765C5.61783 12.7765 5.77509 12.6191 5.77509 12.4252V5.78586C5.77509 5.59183 5.61783 5.43457 5.4238 5.43457Z" fill="#D74343"/>
<path d="M2.40274 4.46564V13.1206C2.40274 13.6322 2.59032 14.1126 2.91801 14.4573C3.24418 14.8029 3.69811 14.9992 4.17317 15H10.8196C11.2948 14.9992 11.7488 14.8029 12.0748 14.4573C12.4025 14.1126 12.5901 13.6322 12.5901 13.1206V4.46564C13.2415 4.29275 13.6635 3.66345 13.5764 2.99504C13.4891 2.32677 12.9198 1.82688 12.2458 1.82674H10.4472V1.38763C10.4493 1.01837 10.3033 0.663786 10.0419 0.402928C9.78045 0.142208 9.42532 -0.00297272 9.05606 4.61562e-05H5.93674C5.56748 -0.00297272 5.21235 0.142208 4.95094 0.402928C4.68954 0.663786 4.54353 1.01837 4.54559 1.38763V1.82674H2.74703C2.073 1.82688 1.50367 2.32677 1.41639 2.99504C1.32926 3.66345 1.75135 4.29275 2.40274 4.46564ZM10.8196 14.2974H4.17317C3.57255 14.2974 3.10532 13.7815 3.10532 13.1206V4.49652H11.8875V13.1206C11.8875 13.7815 11.4203 14.2974 10.8196 14.2974ZM5.24817 1.38763C5.24583 1.20471 5.31774 1.02866 5.44755 0.899533C5.57722 0.770407 5.75369 0.699464 5.93674 0.70262H9.05606C9.23912 0.699464 9.41558 0.770407 9.54526 0.899533C9.67507 1.02852 9.74697 1.20471 9.74464 1.38763V1.82674H5.24817V1.38763ZM2.74703 2.52931H12.2458C12.595 2.52931 12.8781 2.8124 12.8781 3.16163C12.8781 3.51086 12.595 3.79395 12.2458 3.79395H2.74703C2.3978 3.79395 2.11471 3.51086 2.11471 3.16163C2.11471 2.8124 2.3978 2.52931 2.74703 2.52931Z" fill="#D74343"/>
<path d="M7.49642 5.43457C7.30239 5.43457 7.14514 5.59183 7.14514 5.78586V12.4252C7.14514 12.6191 7.30239 12.7765 7.49642 12.7765C7.69045 12.7765 7.8477 12.6191 7.8477 12.4252V5.78586C7.8477 5.59183 7.69045 5.43457 7.49642 5.43457Z" fill="#D74343"/>
</g>
<defs>
<clipPath id="clip0">
<rect width="15" height="15" fill="white"/>
</clipPath>
</defs>
</svg>
