<svg width="34" height="35" viewBox="0 0 34 35" fill="none" xmlns="http://www.w3.org/2000/svg">
<rect y="0.629883" width="34" height="34" rx="2" fill="#CB0E72"/>
<path d="M20.0732 10.9277H13.9261C11.9254 10.9277 10.2979 12.5553 10.2979 14.5559V20.7031C10.2979 22.7037 11.9254 24.3313 13.9261 24.3313H20.0733C22.0738 24.3313 23.7014 22.7037 23.7014 20.7031V14.5559C23.7014 12.5553 22.0738 10.9277 20.0732 10.9277V10.9277ZM16.9996 21.2944C14.9787 21.2944 13.3347 19.6504 13.3347 17.6295C13.3347 15.6086 14.9787 13.9646 16.9996 13.9646C19.0205 13.9646 20.6645 15.6086 20.6645 17.6295C20.6645 19.6504 19.0205 21.2944 16.9996 21.2944ZM20.7522 14.8289C20.155 14.8289 19.6692 14.3431 19.6692 13.7459C19.6692 13.1487 20.155 12.6629 20.7522 12.6629C21.3494 12.6629 21.8352 13.1487 21.8352 13.7459C21.8352 14.3431 21.3494 14.8289 20.7522 14.8289Z" fill="white"/>
<path fill-rule="evenodd" clip-rule="evenodd" d="M17.0003 20.629C18.657 20.629 20.0001 19.2859 20.0001 17.6292C20.0001 15.9724 18.657 14.6293 17.0003 14.6293C15.3435 14.6293 14.0004 15.9724 14.0004 17.6292C14.0004 19.2859 15.3435 20.629 17.0003 20.629ZM17.0003 21.7779C19.2915 21.7779 21.149 19.9204 21.149 17.6292C21.149 15.3379 19.2915 13.4805 17.0003 13.4805C14.709 13.4805 12.8516 15.3379 12.8516 17.6292C12.8516 19.9204 14.709 21.7779 17.0003 21.7779Z" fill="white"/>
</svg>
