<svg width="18" height="15" viewBox="0 0 18 15" fill="none" xmlns="http://www.w3.org/2000/svg">
<path d="M5.62469 7.18727C3.90161 7.18727 2.49976 5.78552 2.49976 4.06244C2.49976 2.33936 3.90161 0.9375 5.62469 0.9375C7.34777 0.9375 8.74963 2.33936 8.74963 4.06244C8.74963 5.78552 7.34777 7.18727 5.62469 7.18727ZM5.62469 1.87497C4.41852 1.87497 3.43723 2.85616 3.43723 4.06244C3.43723 5.26861 4.41852 6.24979 5.62469 6.24979C6.83086 6.24979 7.81216 5.26861 7.81216 4.06244C7.81216 2.85616 6.83086 1.87497 5.62469 1.87497Z" fill="#737373"/>
<path d="M10.7809 14.0623H0.468735C0.209993 14.0623 0 13.8523 0 13.5936V11.4061C0 9.76932 1.33182 8.4375 2.96862 8.4375H8.28103C9.91783 8.4375 11.2496 9.76932 11.2496 11.4061V13.5936C11.2496 13.8523 11.0397 14.0623 10.7809 14.0623ZM0.937471 13.1248H10.3122V11.4061C10.3122 10.2862 9.40091 9.37497 8.28103 9.37497H2.96862C1.84874 9.37497 0.937471 10.2862 0.937471 11.4061V13.1248Z" fill="#737373"/>
<path d="M12.219 6.4053L17.5313 6.4053C17.79 6.4053 18 6.61529 18 6.87404C18 7.13278 17.79 7.34277 17.5313 7.34277L12.219 7.34277C11.9602 7.34277 11.7502 7.13278 11.7502 6.87403C11.7502 6.61529 11.9602 6.4053 12.219 6.4053Z" fill="#737373"/>
<path d="M14.7189 3.90536C14.8389 3.90536 14.9589 3.95102 15.0502 4.0428C15.2333 4.22601 15.2333 4.52286 15.0502 4.70596L12.8815 6.87467L15.0502 9.04337C15.2333 9.22647 15.2333 9.52332 15.0502 9.70642C14.8671 9.88952 14.5702 9.88952 14.387 9.70642L11.8871 7.20654C11.704 7.02344 11.704 6.72647 11.8871 6.54337L14.387 4.04348C14.4789 3.95102 14.5989 3.90536 14.7189 3.90536Z" fill="#737373"/>
</svg>
