<svg width="15" height="15" viewBox="0 0 15 15" fill="none" xmlns="http://www.w3.org/2000/svg">
<g clip-path="url(#clip0)">
<path d="M11.6427 14.6971C11.807 14.6971 11.9702 14.6458 12.1095 14.5451C12.3689 14.3571 12.4901 14.0339 12.4195 13.722L11.4545 9.47125L14.7272 6.60123C14.9677 6.39122 15.0596 6.05865 14.9609 5.75434C14.8621 5.45061 14.5934 5.23557 14.2752 5.20616L9.94513 4.81304L8.23317 0.806707C8.10694 0.512357 7.81945 0.322266 7.50004 0.322266C7.18063 0.322266 6.89315 0.512357 6.76691 0.80602L5.05495 4.81304L0.725536 5.20616C0.406696 5.23488 0.137981 5.45061 0.039217 5.75434C-0.0595484 6.05808 0.0317774 6.39122 0.272339 6.60123L3.54498 9.47068L2.57998 13.7214C2.50926 14.0339 2.63057 14.3571 2.8899 14.5445C3.14866 14.732 3.4937 14.7464 3.7662 14.5827L7.50004 12.3513L11.2339 14.5839C11.3601 14.6589 11.5008 14.6971 11.6427 14.6971ZM7.50004 11.3901C7.35813 11.3901 7.21759 11.4282 7.09125 11.5032L3.56741 13.6108L4.47815 9.59874C4.54316 9.3132 4.44622 9.01508 4.22557 8.8219L1.13547 6.11187L5.22375 5.74061C5.5181 5.71372 5.77125 5.52866 5.88627 5.25743L7.50004 1.47666L9.11576 5.258C9.22952 5.5274 9.48267 5.71246 9.77633 5.73935L13.8652 6.11061L10.7752 8.82064C10.5539 9.01439 10.457 9.31195 10.5226 9.59817L11.4327 13.6101L7.90883 11.5032C7.7826 11.4282 7.64195 11.3901 7.50004 11.3901ZM9.97821 4.89052C9.97821 4.89052 9.97821 4.89121 9.9789 4.89178L9.97821 4.89052ZM5.02313 4.88869L5.02245 4.88995C5.02245 4.88926 5.02245 4.88926 5.02313 4.88869Z" fill="#737373"/>
</g>
<defs>
<clipPath id="clip0">
<rect width="15" height="15" fill="white" transform="matrix(-1 0 0 1 15 0)"/>
</clipPath>
</defs>
</svg>
