<svg width="18" height="15" viewBox="0 0 18 15" fill="none" xmlns="http://www.w3.org/2000/svg">
<g clip-path="url(#clip0)">
<path d="M5.62469 7.18727C3.90161 7.18727 2.49976 5.78552 2.49976 4.06244C2.49976 2.33936 3.90161 0.9375 5.62469 0.9375C7.34777 0.9375 8.74963 2.33936 8.74963 4.06244C8.74963 5.78552 7.34777 7.18727 5.62469 7.18727V7.18727ZM5.62469 1.87497C4.41852 1.87497 3.43723 2.85616 3.43723 4.06244C3.43723 5.26861 4.41852 6.2498 5.62469 6.2498C6.83086 6.2498 7.81216 5.26861 7.81216 4.06244C7.81216 2.85616 6.83086 1.87497 5.62469 1.87497V1.87497Z" fill="#737373"/>
<path d="M10.7809 14.0623H0.468735C0.209993 14.0623 0 13.8523 0 13.5936V11.4061C0 9.76932 1.33182 8.4375 2.96862 8.4375H8.28103C9.91783 8.4375 11.2496 9.76932 11.2496 11.4061V13.5936C11.2496 13.8523 11.0397 14.0623 10.7809 14.0623V14.0623ZM0.937471 13.1248H10.3122V11.4061C10.3122 10.2862 9.40091 9.37497 8.28103 9.37497H2.96862C1.84874 9.37497 0.937471 10.2862 0.937471 11.4061V13.1248Z" fill="#737373"/>
<path d="M17.5308 7.34373H12.2185C11.9597 7.34373 11.7498 7.13373 11.7498 6.87499C11.7498 6.61624 11.9597 6.40625 12.2185 6.40625H17.5308C17.7895 6.40625 17.9995 6.61624 17.9995 6.87499C17.9995 7.13373 17.7895 7.34373 17.5308 7.34373Z" fill="#737373"/>
<path d="M15.0309 9.84367C14.9108 9.84367 14.7909 9.79801 14.6996 9.70623C14.5165 9.52301 14.5165 9.22616 14.6996 9.04306L16.8683 6.87436L14.6996 4.70565C14.5165 4.52255 14.5165 4.2257 14.6996 4.0426C14.8827 3.8595 15.1795 3.8595 15.3627 4.0426L17.8626 6.54249C18.0457 6.72559 18.0457 7.02255 17.8626 7.20565L15.3627 9.70554C15.2709 9.79801 15.1508 9.84367 15.0309 9.84367V9.84367Z" fill="#737373"/>
</g>
<defs>
<clipPath id="clip0">
<rect width="18" height="15" fill="white"/>
</clipPath>
</defs>
</svg>
