<?xml version="1.0" encoding="utf-8"?>
<!-- Generator: Adobe Illustrator 21.0.0, SVG Export Plug-In . SVG Version: 6.00 Build 0)  -->
<svg version="1.1" id="Layer_1" xmlns="http://www.w3.org/2000/svg" xmlns:xlink="http://www.w3.org/1999/xlink" x="0px" y="0px"
	 viewBox="0 0 22 18" style="enable-background:new 0 0 22 18;" xml:space="preserve">
<g>
	<path d="M11,8.7c2.4,0,4.4-2,4.4-4.4C15.3,1.9,13.4,0,11,0C8.6,0,6.7,2,6.7,4.5C6.7,6.8,8.6,8.7,11,8.7z M11,6.9
		c-1.3,0-2.3-1.1-2.3-2.4s1-2.4,2.3-2.4c1.3,0,2.3,1.1,2.3,2.4S12.3,6.9,11,6.9z"/>
	<path d="M21.9,16.8L21.9,16.8c-0.2-0.5-2.9-6.3-10.9-6.3c-8.3,0-10.9,6.3-10.9,6.4c-0.1,0.5,0.2,1,0.7,1.2h0.4
		c0.4,0,0.8-0.3,0.9-0.6l0,0c0.6-1.2,2.9-5,9-5c6.2,0,8.5,3.8,9,5l0,0c0.1,0.4,0.5,0.7,0.9,0.7h0.4l0,0c0.2-0.1,0.4-0.2,0.5-0.4
		C22,17.3,22,17.1,21.9,16.8z"/>
</g>
</svg>
