<svg width="14" height="14" viewBox="0 0 14 14" fill="none" xmlns="http://www.w3.org/2000/svg">
<g clip-path="url(#clip0)">
<path d="M2.19653 11.0833H8.90494C9.78987 11.0833 10.509 10.3641 10.509 9.4792V1.6042C10.509 0.719269 9.78987 0 8.90494 0H3.94194C3.36612 0 2.80205 0.233383 2.39552 0.641083L1.23352 1.80309C0.819946 2.21666 0.592438 2.7662 0.592438 3.35004V9.4792C0.592438 10.3641 1.3116 11.0833 2.19653 11.0833ZM8.90494 0.875C9.30687 0.875 9.63403 1.20227 9.63403 1.6042V9.4792C9.63403 9.88113 9.30687 10.2083 8.90494 10.2083H2.19653C1.7946 10.2083 1.46744 9.88113 1.46744 9.4792V3.35004C1.46744 2.99948 1.60394 2.66997 1.85185 2.42195L3.01385 1.25995C3.25824 1.01503 3.59598 0.875 3.94194 0.875H8.90494Z" fill="#737373"/>
<path d="M4.82158 13.9997H11.8216C12.7065 13.9997 13.4258 13.2804 13.4258 12.3955V3.06221C13.4258 2.17728 12.7065 1.45801 11.8216 1.45801H11.53C11.2885 1.45801 11.0925 1.65401 11.0925 1.89551C11.0925 2.13701 11.2885 2.33301 11.53 2.33301H11.8216C12.2235 2.33301 12.5508 2.66028 12.5508 3.06221V12.3955C12.5508 12.7974 12.2235 13.1247 11.8216 13.1247H4.82158C4.41965 13.1247 4.09248 12.7974 4.09248 12.3955V12.1039C4.09248 11.8624 3.89648 11.6664 3.65498 11.6664C3.41348 11.6664 3.21748 11.8624 3.21748 12.1039V12.3955C3.21748 13.2804 3.93665 13.9997 4.82158 13.9997Z" fill="#737373"/>
<path d="M3.36328 4.95801H7.73828C7.97978 4.95801 8.17578 4.76201 8.17578 4.52051C8.17578 4.27901 7.97978 4.08301 7.73828 4.08301H3.36328C3.12178 4.08301 2.92578 4.27901 2.92578 4.52051C2.92578 4.76201 3.12178 4.95801 3.36328 4.95801Z" fill="#737373"/>
<path d="M3.36328 6.70801H7.73828C7.97978 6.70801 8.17578 6.51201 8.17578 6.27051C8.17578 6.02901 7.97978 5.83301 7.73828 5.83301H3.36328C3.12178 5.83301 2.92578 6.02901 2.92578 6.27051C2.92578 6.51201 3.12178 6.70801 3.36328 6.70801Z" fill="#737373"/>
<path d="M3.36328 8.45801H7.73828C7.97978 8.45801 8.17578 8.26201 8.17578 8.02051C8.17578 7.77901 7.97978 7.58301 7.73828 7.58301H3.36328C3.12178 7.58301 2.92578 7.77901 2.92578 8.02051C2.92578 8.26201 3.12178 8.45801 3.36328 8.45801Z" fill="#737373"/>
</g>
<defs>
<clipPath id="clip0">
<rect width="14" height="14" fill="white" transform="matrix(-1 0 0 1 14 0)"/>
</clipPath>
</defs>
</svg>
