<svg width="16" height="14" viewBox="0 0 16 14" fill="none" xmlns="http://www.w3.org/2000/svg">
<path d="M15.0499 6.31199C15.0609 4.82711 14.2672 3.4855 12.9898 2.51683C11.7124 1.54812 9.94882 0.95 8.0109 0.95C6.07296 0.95 4.30942 1.54813 3.02928 2.5168C1.74913 3.48548 0.95 4.82705 0.95 6.31187C0.95 7.89435 1.86812 9.37362 3.41293 10.3835L2.75072 11.8988L2.7504 11.8996C2.61033 12.235 2.70406 12.6134 3.00706 12.8438C3.17935 12.9763 3.3539 13.0382 3.53175 13.0485C3.70866 13.0587 3.88567 13.0175 4.06331 12.9492L4.0634 12.9494L4.06785 12.9472L6.7487 11.5967C7.16279 11.6545 7.57636 11.6737 7.98899 11.6737C9.92692 11.6737 11.6905 11.0756 12.9706 10.1069C14.2507 9.13829 15.0498 7.79677 15.0499 6.31199ZM15.0499 6.31199C15.0499 6.31208 15.0499 6.31216 15.0499 6.31225L14.9999 6.31187H15.0499C15.0499 6.31191 15.0499 6.31195 15.0499 6.31199ZM6.59524 10.6695L6.57898 10.6667L6.56425 10.6741L3.72864 12.1076L4.59528 10.0694L4.61371 10.0261L4.57154 10.0051C2.96169 9.20416 1.92636 7.84161 1.92636 6.31187C1.92636 5.08218 2.60018 3.96461 3.69986 3.15268C4.79955 2.34075 6.32251 1.83694 8.0109 1.83694C9.69929 1.83694 11.2222 2.34075 12.3219 3.15268C13.4216 3.96461 14.0954 5.08218 14.0954 6.31187C14.0954 7.54157 13.4216 8.65914 12.3219 9.47107C11.2222 10.283 9.69929 10.7868 8.0109 10.7868C7.53157 10.7868 7.05239 10.7477 6.59524 10.6695Z" fill="#737373" stroke="#737373" stroke-width="0.1"/>
</svg>
