<svg width="23" height="16" viewBox="0 0 23 16" xmlns="http://www.w3.org/2000/svg">
<path d="M22.6044 7.96092L22.6198 7.92308L22.6044 7.88523C20.9332 3.79774 16.704 0.9 11.7559 0.9C6.80782 0.9 2.57858 3.79774 0.907437 7.88523L0.891965 7.92308L0.907437 7.96092C2.57858 12.0484 6.80782 14.9462 11.7559 14.9462C16.704 14.9462 20.9332 12.0484 22.6044 7.96092ZM21.5122 7.92308C19.8767 11.5508 16.0612 13.9769 11.7559 13.9769C7.4506 13.9769 3.63507 11.5508 1.99965 7.92308C3.63507 4.29534 7.4506 1.86923 11.7559 1.86923C16.0612 1.86923 19.8767 4.29535 21.5122 7.92308ZM14.138 7.92308C14.138 9.13561 13.0785 10.1308 11.7559 10.1308C10.4333 10.1308 9.37377 9.13561 9.37377 7.92308C9.37377 6.71054 10.4333 5.71538 11.7559 5.71538C13.0785 5.71538 14.138 6.71054 14.138 7.92308ZM8.3464 7.92308C8.3464 9.68438 9.87987 11.1 11.7559 11.1C13.6319 11.1 15.1654 9.68438 15.1654 7.92308C15.1654 6.16177 13.6319 4.74615 11.7559 4.74615C9.87987 4.74615 8.3464 6.16177 8.3464 7.92308Z" stroke-width="0.2"/>
</svg>
