<svg width="19" height="11" viewBox="0 0 19 11" fill="none" xmlns="http://www.w3.org/2000/svg">
<path d="M18.8993 9.77945C18.8764 9.72992 18.8549 9.68883 18.835 9.65592C18.5057 9.06285 17.8765 8.3349 16.9476 7.47187L16.928 7.4521L16.9181 7.44241L16.9082 7.43248H16.8982C16.4767 7.03061 16.2097 6.76039 16.0979 6.62205C15.8934 6.35852 15.8475 6.09177 15.9593 5.82149C16.0383 5.61728 16.335 5.18602 16.8487 4.52713C17.1189 4.17793 17.3329 3.89806 17.491 3.68721C18.6308 2.17192 19.1249 1.20363 18.9733 0.781963L18.9144 0.683424C18.8749 0.6241 18.7728 0.569829 18.6083 0.520335C18.4434 0.470945 18.2326 0.462777 17.9756 0.495692L15.1297 0.515351C15.0836 0.499014 15.0178 0.500537 14.932 0.520335C14.8464 0.540133 14.8035 0.550067 14.8035 0.550067L14.754 0.574814L14.7147 0.604545C14.6817 0.624204 14.6455 0.658781 14.6059 0.708206C14.5666 0.757458 14.5337 0.815259 14.5074 0.881124C14.1975 1.67826 13.8452 2.41939 13.4499 3.10449C13.2061 3.51301 12.9822 3.86705 12.7778 4.16682C12.5736 4.46649 12.4023 4.68727 12.2641 4.8288C12.1256 4.97046 12.0007 5.08396 11.8885 5.16969C11.7765 5.25546 11.6909 5.29169 11.6317 5.27844C11.5723 5.26518 11.5164 5.25203 11.4635 5.23888C11.3714 5.17955 11.2972 5.09887 11.2413 4.99677C11.1852 4.89467 11.1474 4.76615 11.1276 4.61134C11.108 4.45642 11.0963 4.32316 11.093 4.21112C11.0899 4.09923 11.0914 3.94095 11.098 3.73674C11.1049 3.53243 11.108 3.39419 11.108 3.32171C11.108 3.07134 11.1128 2.7996 11.1226 2.50644C11.1326 2.21328 11.1407 1.98101 11.1474 1.80989C11.1541 1.6386 11.1573 1.45737 11.1573 1.26632C11.1573 1.07526 11.1456 0.925427 11.1226 0.816678C11.0999 0.708067 11.0651 0.602641 11.0192 0.500434C10.9729 0.39833 10.9053 0.319347 10.8166 0.263276C10.7277 0.207275 10.6171 0.162834 10.4855 0.129814C10.1364 0.0507965 9.6917 0.00805144 9.15138 0.00140605C7.9261 -0.0117463 7.1388 0.0673753 6.78964 0.238667C6.65129 0.31104 6.52611 0.409924 6.41417 0.53501C6.29556 0.679997 6.27901 0.75912 6.36464 0.772134C6.75997 0.831354 7.03984 0.973018 7.20456 1.19699L7.26392 1.31567C7.31009 1.4013 7.35619 1.5529 7.40233 1.77026C7.4484 1.98762 7.47813 2.22806 7.49121 2.49146C7.52409 2.97245 7.52409 3.38419 7.49121 3.7267C7.45823 4.06936 7.42708 4.33611 7.39734 4.52716C7.36761 4.71822 7.32317 4.87303 7.26392 4.99158C7.20456 5.11016 7.16507 5.18263 7.14527 5.20894C7.12551 5.23524 7.10903 5.25182 7.09595 5.25833C7.01032 5.29114 6.92126 5.30786 6.82909 5.30786C6.73678 5.30786 6.62485 5.26169 6.49312 5.16941C6.36142 5.07714 6.22474 4.95039 6.08308 4.78896C5.94141 4.6275 5.78165 4.40187 5.60371 4.11203C5.42591 3.8222 5.24143 3.47965 5.05038 3.08438L4.89231 2.79773C4.79349 2.61332 4.65851 2.34481 4.48722 1.99243C4.31582 1.63991 4.16433 1.29892 4.03263 0.969522C3.97999 0.83118 3.9009 0.725858 3.79551 0.653382L3.74605 0.62365C3.71317 0.597346 3.66038 0.569414 3.58798 0.539648C3.51547 0.509917 3.4398 0.488596 3.36068 0.475478L0.653066 0.495138C0.376382 0.495138 0.18865 0.557819 0.0897999 0.683009L0.050239 0.742229C0.0304759 0.775213 0.0205078 0.827892 0.0205078 0.900403C0.0205078 0.97288 0.0402709 1.06183 0.0798318 1.16715C0.475094 2.09612 0.904934 2.99204 1.36935 3.85504C1.83377 4.71804 2.23733 5.41321 2.57981 5.93993C2.92236 6.46703 3.27152 6.9645 3.6273 7.4321C3.98307 7.89987 4.21856 8.19964 4.33378 8.33134C4.44914 8.46328 4.53976 8.56192 4.60562 8.62778L4.85271 8.86491C5.01082 9.02305 5.24299 9.21244 5.54934 9.43309C5.85575 9.65387 6.19498 9.87123 6.56719 10.0855C6.93947 10.2994 7.37256 10.474 7.86671 10.609C8.36079 10.7442 8.84168 10.7984 9.30945 10.7723H10.4459C10.6764 10.7524 10.851 10.6799 10.9697 10.5548L11.009 10.5053C11.0354 10.466 11.0602 10.4049 11.083 10.3227C11.1061 10.2403 11.1176 10.1496 11.1176 10.0509C11.1109 9.76771 11.1324 9.51245 11.1817 9.28519C11.231 9.05801 11.2871 8.88671 11.3499 8.77135C11.4127 8.6561 11.4835 8.55884 11.5623 8.47999C11.6413 8.40098 11.6975 8.35311 11.7306 8.33663C11.7634 8.32005 11.7896 8.30881 11.8093 8.30206C11.9674 8.24938 12.1535 8.3004 12.3678 8.45535C12.582 8.61017 12.7828 8.80133 12.9707 9.02852C13.1585 9.25591 13.384 9.51103 13.6475 9.79426C13.9111 10.0776 14.1417 10.2882 14.3392 10.4267L14.5368 10.5453C14.6687 10.6244 14.84 10.6969 15.0509 10.7628C15.2613 10.8286 15.4457 10.8451 15.6041 10.8122L18.1337 10.7727C18.3839 10.7727 18.5786 10.7313 18.7167 10.6491C18.8551 10.5668 18.9373 10.476 18.9638 10.3774C18.9903 10.2786 18.9917 10.1665 18.9688 10.0412C18.9454 9.91623 18.9223 9.82884 18.8993 9.77945Z" fill="#737373"/>
</svg>
