<svg width="35" height="35" viewBox="0 0 35 35" fill="none" xmlns="http://www.w3.org/2000/svg">
<rect x="0.841797" y="0.480469" width="34" height="34" rx="2" fill="#333333"/>
<path d="M17.8416 6.375C16.3511 6.375 15.127 7.59917 15.127 9.08967C15.127 9.3366 15.1646 9.59358 15.2195 10.0306C15.2744 10.4675 15.3503 11.0315 15.4432 11.681C15.6289 12.9798 15.8748 14.6158 16.1218 16.2234C16.6158 19.4385 17.109 22.5319 17.109 22.5319C17.1347 22.7079 17.2229 22.8687 17.3574 22.985C17.4919 23.1013 17.6638 23.1653 17.8416 23.1653C18.0194 23.1653 18.1913 23.1013 18.3259 22.985C18.4604 22.8687 18.5486 22.7079 18.5743 22.5319C18.5743 22.5319 19.0674 19.4385 19.5614 16.2234C19.8084 14.6158 20.0543 12.9798 20.2401 11.681C20.333 11.0315 20.4088 10.4675 20.4638 10.0306C20.5187 9.59358 20.5563 9.3366 20.5563 9.08967C20.5563 7.59917 19.3321 6.375 17.8416 6.375ZM17.8416 24.1438C16.6237 24.1438 15.6205 25.147 15.6205 26.3649C15.6205 27.5828 16.6237 28.586 17.8416 28.586C19.0595 28.586 20.0627 27.5828 20.0627 26.3649C20.0627 25.147 19.0595 24.1438 17.8416 24.1438Z" fill="white"/>
</svg>
