<?xml version="1.0" encoding="UTF-8"?>
<!DOCTYPE svg PUBLIC "-//W3C//DTD SVG 1.1//EN" "http://www.w3.org/Graphics/SVG/1.1/DTD/svg11.dtd">
<svg xmlns="http://www.w3.org/2000/svg" xmlns:xlink="http://www.w3.org/1999/xlink">
	<defs>
		<linearGradient id="paint0_linear" x1=".458" x2="30.457" y1=".207" y2="35.207" gradientUnits="userSpaceOnUse">
			<stop stop-color="#4662CD"/>
			<stop offset=".354" stop-color="#B83B99"/>
			<stop offset=".672" stop-color="#FA5247"/>
			<stop offset="1" stop-color="#FDDB55"/>
		</linearGradient>

		<clipPath id="clip0">
			<path fill="#fff" d="M0 0h15v15H0z"/>
		</clipPath>

		<clipPath id="clip0">
			<path fill="#fff" d="M0 0h15v15H0z"/>
		</clipPath>

		<clipPath id="clip0">
			<path fill="#fff" d="M0 0h14v14H0z" transform="matrix(-1 0 0 1 14 0)"/>
		</clipPath>

		<clipPath id="clip0">
			<path fill="#fff" d="M0 0h15v15H0z" transform="matrix(-1 0 0 1 15 0)"/>
		</clipPath>

		<clipPath id="clip0">
			<path fill="#fff" d="M0 0h18v15H0z"/>
		</clipPath>
	</defs>
<symbol id="add-to-cart" viewBox="0 0 22 19">
	<path d="M12.5 12.1c-2.6 0-4.8-2-4.8-4.4 0-.6.4-1 1-1s1 .4 1 1c0 1.3 1.3 2.4 2.8 2.4s2.8-1.1 2.8-2.4c0-.6.4-1 1-1s1 .4 1 1c0 2.4-2.1 4.4-4.8 4.4z"/>
	<path d="M22 4.8v-.6c0-.2-.1-.5-.2-.7L19 .3c-.3-.2-.5-.3-.8-.3H6.8c-.1 0-.2 0-.3.1v2.4h.3l.5-.5h10.4l1.7 2h-10v2H20v10.3c0 .4-.4.7-.9.7H5.9c-.5 0-.9-.3-.9-.7v-5.8H3v5.8C3 17.8 4.3 19 5.9 19h13.2c1.6 0 2.9-1.2 2.9-2.7V5.2 5v-.2z"/>
	<path d="M8 4H5V1H3v3H0v2h3v3h2V6h3z"/>
</symbol>
<symbol id="arrow-dropdown" viewBox="0 0 12 7">
	<path fill="#737373" fill-rule="evenodd" d="M5.912 3.881L10.265 0l1.406 1.363-5.759 5.12L.17 1.363 1.575 0l4.337 3.881z" clip-rule="evenodd"/>
</symbol>
<symbol id="bell" viewBox="0 0 14 19">
	<path fill="#737373" d="M6.964 17.302a1.41 1.41 0 01-1.408-1.407h-.805a2.212 2.212 0 004.425 0H8.37a1.409 1.409 0 01-1.407 1.407zM1.242 15.18h11.444c.67 0 1.153-.394 1.231-1.005.078-.611-.256-1.029-.809-1.659-1.322-1.506-1.415-2.544-1.516-4.954-.087-2.074-1.222-3.569-3.004-4.122V1.624a1.624 1.624 0 00-3.248 0V3.44c-1.783.553-2.917 2.048-3.004 4.122-.101 2.41-.195 3.448-1.517 4.954-.552.63-.887 1.048-.809 1.66.078.61.562 1.005 1.232 1.005zM6.144 1.625a.82.82 0 111.639 0V3.26a5.617 5.617 0 00-1.639 0V1.624zm-4.72 11.423c1.496-1.705 1.612-2.972 1.716-5.451.11-2.648 2.048-3.59 3.824-3.59 1.776 0 3.713.942 3.824 3.59.104 2.48.22 3.746 1.715 5.45.53.605.645.797.616 1.027-.026.201-.171.303-.433.303H1.242c-.262 0-.408-.102-.433-.302-.03-.23.085-.423.615-1.027z"/>
</symbol>
<symbol id="bookmarks" viewBox="0 0 12 17">
	<path d="M10.935 15.882l.165.142V.9H.9V16.024l.165-.143L6 11.619l4.935 4.264zm-4.87-5.395L6 10.432l-.065.055-4.155 3.549V1.78h8.44v12.256l-4.155-3.549z"/>
</symbol>
<symbol id="btn-quiz" viewBox="0 0 18 18">
	<path fill="#fff" d="M9 0c4.963 0 9 4.037 9 9s-4.037 9-9 9-9-4.037-9-9 4.037-9 9-9zm0 16.875c4.342 0 7.875-3.533 7.875-7.875 0-4.342-3.533-7.875-7.875-7.875-4.342 0-7.875 3.533-7.875 7.875 0 4.342 3.533 7.875 7.875 7.875z"/>
	<path fill="#fff" d="M8.437 4.5h1.125v3.938H13.5v1.125H9.562V13.5H8.437V9.563H4.5V8.438h3.937V4.5z"/>
</symbol>
<symbol id="card" viewBox="0 0 52 49">
	<circle cx="39.5" cy="29.5" r="3.5" fill="#231F20"/>
	<path fill="#231F20" d="M47 9.09V6a6 6 0 00-5.91-6H9.82C1 0 .11 7.23 0 10.88V43a6 6 0 006 6h40a6 6 0 006-6V15a6 6 0 00-5-5.91zM9.82 4h31.27A2 2 0 0143 6v3H4.18c.51-3.63 2.17-5 5.64-5zM48 43a2 2 0 01-2 2H6a2 2 0 01-2-2V13h42a2 2 0 012 2v28z"/>
</symbol>
<symbol id="cart" viewBox="0 0 19 19">
	<path d="M18.9 4s0-.1 0 0c-.1-.1-.1-.2-.1-.2L16 .3c-.2-.2-.5-.3-.8-.3H3.8c-.3 0-.6.1-.8.3L.2 3.8s0 .1-.1.1c0 0 0 .1-.1.1v12.4C0 17.8 1.3 19 2.8 19h13.3c1.6 0 2.9-1.2 2.9-2.6V4.3c0-.1 0-.2-.1-.3zM4.3 1.7h10.5l1.4 1.7H2.9l1.4-1.7zm11.8 15.6H2.8c-.5 0-.9-.4-.9-.9V5.2h15.2v11.2c0 .5-.4.9-1 .9z"/>
	<path d="M13.3 6.9c-.5 0-.9.4-.9.9 0 1.4-1.3 2.6-2.9 2.6S6.7 9.2 6.7 7.8c0-.5-.4-.9-1-.9s-.9.4-.9.9c0 2.4 2.1 4.3 4.8 4.3s4.8-1.9 4.8-4.3c-.2-.5-.6-.9-1.1-.9z"/>
</symbol>
<symbol id="chat" viewBox="0 0 32 30">
	<path fill="#fff" d="M16.025 0C7.21 0 0 5.951 0 13.28c0 3.934 2.103 7.623 5.659 10.132l-1.553 3.885c-.3.787-.1 1.672.551 2.213.753.634 1.51.58 2.304.246l6.16-3.393a18.56 18.56 0 002.854.196C24.788 26.56 32 20.61 32 13.28 32.05 5.952 24.839 0 16.025 0zm0 24.592c-1.102 0-2.203-.098-3.255-.295l-6.76 3.738 2.103-5.41c-3.706-2.017-6.11-5.46-6.11-9.345 0-6.247 6.26-11.313 14.022-11.313 7.762 0 14.022 5.066 14.022 11.313 0 6.246-6.26 11.312-14.022 11.312z"/>
</symbol>
<symbol id="checkbox-ok" viewBox="0 0 11 10">
	<path stroke="#737373" stroke-width="2" d="M1 4.551L3.97 8 10 1"/>
</symbol>
<symbol id="comments" viewBox="0 0 18 17">
	<path d="M17.05 7.64c.025-3.7-3.613-6.69-8.038-6.69C4.587.95.95 3.94.95 7.64c0 1.974 1.049 3.822 2.818 5.084l-.761 1.906.322 1.125-.033.038c.196.165.395.242.598.255.201.013.403-.038.606-.124l.005-.002 3.064-1.689c.474.073.947.097 1.418.097 4.426 0 8.063-2.99 8.063-6.69zm0 0H17h.05zM7.394 13.1l-.018-.004-.015.009-3.26 1.802 1.002-2.577.016-.04-.039-.022C3.24 11.267 2.052 9.56 2.052 7.64c0-3.086 3.097-5.606 6.96-5.606 3.864 0 6.961 2.52 6.961 5.606s-3.097 5.606-6.96 5.606a8.848 8.848 0 01-1.619-.147z"/>
</symbol>
<symbol id="dislike" viewBox="0 0 20 19">
	<path d="M1.045 6.76L4.2 1.177A.347.347 0 014.504 1h11.299c.011 0 .022 0 .031.002A.276.276 0 0115.867 1h2.889c.191 0 .347.156.347.347v10.86a.347.347 0 01-.347.347h-2.889l-.031-.002a.29.29 0 01-.032.002h-1.87l-3.95 5.042a.347.347 0 01-.104.09c-.099.055-.984.537-1.698.537-.545 0-.906-.285-.99-.783-.187-1.11-.06-4.023-.016-4.886H1.346A.347.347 0 011 12.207V6.931c0-.06.015-.119.045-.17zm15.168 5.1h2.195V1.693h-2.195V11.86zm-14.52 0h5.725c.255 0 .462.21.461.482-.002.038-.204 3.799-.004 4.984.02.115.054.203.306.203.37 0 .921-.22 1.301-.418l3.887-4.96a.347.347 0 01.342-.29h1.745V1.692H4.706l-3.013 5.33v4.837z"/>
	<path fill-rule="evenodd" d="M.872 6.662a.547.547 0 00-.07.269v5.276c0 .301.244.546.546.546h5.618a68.016 68.016 0 00-.068 2.148c-.014.972 0 1.996.098 2.572.048.29.181.533.394.702.212.167.485.248.792.248.395 0 .823-.132 1.153-.262.334-.132.589-.27.642-.3a.547.547 0 00.165-.142l3.89-4.966h1.772a.47.47 0 00.032 0h2.92a.547.547 0 00.547-.546V1.347A.547.547 0 0018.756.8h-2.92a.476.476 0 00-.032 0h-11.3a.547.547 0 00-.476.278L.872 6.662zm14.964-5.66A.277.277 0 0115.868 1h2.888c.191 0 .347.155.347.346v10.86a.347.347 0 01-.347.347h-2.888l-.032-.001a.288.288 0 01-.032.001h-1.869l-3.95 5.043a.346.346 0 01-.105.09c-.099.055-.984.537-1.698.537-.545 0-.906-.286-.99-.783-.174-1.037-.075-3.641-.026-4.687l.01-.2H1.348a.347.347 0 01-.347-.346V6.93c0-.06 3.474-5.533 3.504-5.585M7.88 12.342a.468.468 0 00-.461-.482H1.695V7.022l3.012-5.329h10.75V11.86h-1.745a.347.347 0 00-.342.29l-3.887 4.961c-.38.198-.931.418-1.301.418-.252 0-.286-.088-.306-.204-.196-1.162-.005-4.802.004-4.977v-.006zm1.473 4.611c-.175.09-.384.182-.59.253-.224.077-.43.123-.581.123a.419.419 0 01-.101-.009h-.002a.376.376 0 01-.005-.028c-.097-.57-.097-1.785-.071-2.884.024-1.048.072-1.964.077-2.05v-.016a.668.668 0 00-.661-.682H1.895V7.075l2.928-5.182h10.434v9.767h-1.545a.547.547 0 00-.527.403l-3.832 4.89zm8.856-5.293h-1.795V1.893h1.795v9.767zm-1.995.2V1.693h2.196V11.86h-2.196z" clip-rule="evenodd"/>
</symbol>
<symbol id="dots-horizontal" viewBox="0 0 15 5">
	<path d="M3.96 2.459a1.583 1.583 0 11-3.166 0 1.583 1.583 0 013.166 0zM14.25 2.459a1.583 1.583 0 11-3.166 0 1.583 1.583 0 013.166 0zM9.105 2.459a1.583 1.583 0 11-3.166 0 1.583 1.583 0 013.166 0z"/>
</symbol>
<symbol id="dots_v" viewBox="0 0 4 14">
	<circle cx="1.583" cy="11.873" r="1.583" transform="rotate(-90 1.583 11.873)"/>
	<circle cx="1.583" cy="1.583" r="1.583" transform="rotate(-90 1.583 1.583)"/>
	<circle cx="1.583" cy="6.727" r="1.583" transform="rotate(-90 1.583 6.727)"/>
</symbol>
<symbol id="facebook" viewBox="0 0 8 15">
	<path fill="#737373" d="M4.388 4.827V3.072c0-.485.393-.878.878-.878h.877V0H4.388a2.633 2.633 0 00-2.633 2.633v2.194H0V7.02h1.755v7.02h2.633v-7.02h1.755l.878-2.194H4.388z"/>
</symbol>
<symbol id="file-upload" viewBox="0 0 15 17">
	<path fill="#fff" d="M9.954.098a.411.411 0 00-.295-.131H3.027a2.243 2.243 0 00-2.234 2.23v12.54c0 1.224 1.01 2.23 2.234 2.23h9.001a2.243 2.243 0 002.234-2.23V4.779c0-.106-.05-.209-.12-.287L9.955.098zm.12 1.318l2.804 2.945h-1.823a.978.978 0 01-.982-.978V1.416zm1.954 14.73H3.027a1.422 1.422 0 01-1.413-1.409V2.197c0-.768.641-1.409 1.413-1.409h6.225v2.595c0 .998.805 1.799 1.803 1.799h2.386v9.555a1.42 1.42 0 01-1.413 1.409z"/>
	<path fill="#fff" d="M10.907 13.313H4.148a.412.412 0 00-.41.41c0 .226.184.41.41.41h6.763c.226 0 .41-.184.41-.41a.413.413 0 00-.414-.41zM5.425 8.894l1.692-1.82v4.485c0 .226.185.41.41.41.226 0 .411-.184.411-.41V7.075L9.63 8.894a.408.408 0 00.579.02.41.41 0 00.02-.579L7.823 5.752a.414.414 0 00-.3-.13.413.413 0 00-.3.13L4.818 8.335a.41.41 0 00.02.58.419.419 0 00.588-.021z"/>
</symbol>
<symbol id="filter" viewBox="0 0 15 10">
	<path d="M4 0h2v2H4zM0 0h3v2H0zM7 0h8v2H7zM4 8h2v2H4zM0 8h3v2H0zM7 8h8v2H7zM9 4h2v2H9zM12 4h3v2h-3zM0 4h8v2H0z"/>
</symbol>
<symbol id="history" viewBox="0 0 20 19">
	<path d="M10.5 0C7 0 3.9 1.9 2.3 4.8L0 2.5V9h6.5L3.7 6.2C5 3.7 7.5 2 10.5 2 14.6 2 18 5.4 18 9.5S14.6 17 10.5 17c-3.3 0-6-2.1-7.1-5H1.3c1.1 4 4.8 7 9.2 7 5.3 0 9.5-4.3 9.5-9.5S15.7 0 10.5 0zM9 5v5.1l4.7 2.8.8-1.3-4-2.4V5H9z" opacity=".9"/>
</symbol>
<symbol id="img-def" viewBox="0 0 24 21">
	<path fill="#AFAFAF" d="M10.913 9.492a2.396 2.396 0 002.39-2.396 2.396 2.396 0 00-2.39-2.397 2.396 2.396 0 00-2.39 2.397 2.396 2.396 0 002.39 2.396zm0-3.388a.99.99 0 010 1.983.99.99 0 010-1.983z"/>
	<path fill="#AFAFAF" d="M23.127.209H.951a.876.876 0 00-.873.876v18.824c0 .483.392.876.873.876h22.175a.876.876 0 00.873-.876V1.085a.876.876 0 00-.873-.876zm-.529 1.406v11.124L18.19 8.318a.737.737 0 00-1.042 0l-6.234 6.253-3.983-3.994a.731.731 0 00-.521-.217.731.731 0 00-.522.217l-4.408 4.42V1.615h21.118zM1.48 19.379v-2.394l4.93-4.943 3.982 3.994a.732.732 0 001.043 0l6.234-6.253 4.93 4.944v4.652H1.48z"/>
</symbol>
<symbol id="instagram" viewBox="0 0 14 14">
	<path fill="#737373" d="M9.775 0H3.628C1.628 0 0 1.628 0 3.628v6.147c0 2 1.628 3.628 3.628 3.628h6.147c2 0 3.628-1.627 3.628-3.628V3.628c0-2-1.627-3.628-3.628-3.628zM6.702 10.367a3.669 3.669 0 01-3.665-3.665 3.669 3.669 0 013.665-3.665 3.669 3.669 0 013.665 3.665 3.67 3.67 0 01-3.665 3.665zM10.454 3.9a1.084 1.084 0 010-2.166 1.084 1.084 0 010 2.166z"/>
	<path fill="#737373" fill-rule="evenodd" d="M6.702 9.701a3 3 0 100-6 3 3 0 000 6zm0 1.15a4.149 4.149 0 100-8.298 4.149 4.149 0 000 8.297z" clip-rule="evenodd"/>
</symbol>
<symbol id="is-offline" viewBox="0 0 19 19">
	<circle cx="9.5" cy="9.5" r="8.5" fill="#FD5A50" stroke="#fff" stroke-width="2"/>
</symbol>
<symbol id="is-ok" viewBox="0 0 16 12">
	<path stroke="#58CD55" stroke-width="2" d="M1.465 5.569l4.564 4.564L15.293.87"/>
</symbol>
<symbol id="like" viewBox="0 0 20 19">
	<path d="M1.045 12.463L4.2 18.047a.347.347 0 00.303.177h11.299a.28.28 0 00.031-.002.29.29 0 00.032.002h2.889a.347.347 0 00.347-.347V7.017a.347.347 0 00-.347-.347h-2.889a.27.27 0 00-.031.002.276.276 0 00-.032-.002h-1.87l-3.95-5.042a.346.346 0 00-.104-.09C9.78 1.483 8.895 1 8.18 1c-.545 0-.906.285-.99.782-.187 1.111-.06 4.024-.016 4.887H1.346A.347.347 0 001 7.017v5.276c0 .06.015.119.045.17zm15.168-5.1h2.195V17.53h-2.195V7.363zm-14.52 0h5.725c.255 0 .462-.21.461-.482-.002-.037-.204-3.798-.004-4.983.02-.115.054-.204.306-.204.37 0 .921.22 1.301.418l3.887 4.96c.027.165.17.291.342.291h1.745V17.53H4.706l-3.013-5.329V7.363z"/>
	<path fill-rule="evenodd" d="M.872 12.562a.548.548 0 01-.07-.269V7.017c0-.302.244-.547.546-.547h5.618a67.985 67.985 0 01-.068-2.147c-.014-.972 0-1.996.098-2.573.048-.29.181-.533.394-.701C7.602.882 7.875.8 8.182.8c.395 0 .823.132 1.153.262.334.132.589.27.642.3.064.036.12.084.165.142l3.89 4.965h1.772l.032.001h2.92c.302 0 .547.244.547.546v10.86a.547.547 0 01-.547.547h-2.888a.54.54 0 01-.032-.001.47.47 0 01-.032 0h-11.3a.547.547 0 01-.476-.278L.872 12.562zM4.4 18.145l11.467.079h2.888a.347.347 0 00.347-.347V7.017a.347.347 0 00-.347-.347h-2.888c-.012 0-.022 0-.032.002a.276.276 0 00-.032-.002h-1.869l-3.95-5.042a.346.346 0 00-.105-.09c-.099-.055-.984-.537-1.698-.537-.545 0-.906.285-.99.783-.174 1.036-.075 3.64-.026 4.686l.01.2H1.348a.347.347 0 00-.347.347v5.276c0 .06.016.119.045.17M7.88 6.882a.468.468 0 01-.461.482H1.695v4.839l3.012 5.329h10.75V7.363h-1.745a.347.347 0 01-.342-.29l-3.887-4.96c-.38-.199-.931-.419-1.301-.419-.252 0-.286.089-.306.204-.196 1.162-.005 4.803.004 4.977v.006zm1.473-4.61a4.737 4.737 0 00-.59-.253 1.94 1.94 0 00-.581-.124.42.42 0 00-.101.01h-.002a.379.379 0 00-.005.027c-.097.57-.097 1.786-.071 2.884.024 1.048.072 1.964.077 2.05v.016c.001.376-.29.682-.661.682H1.895v4.586l2.928 5.182h10.434V7.563h-1.545a.547.547 0 01-.527-.402L9.353 2.27zm8.856 5.292h-1.795v9.768h1.795V7.563zm-1.995-.2v10.168h2.196V7.363h-2.196z" clip-rule="evenodd"/>
</symbol>
<symbol id="list" viewBox="0 0 22 14">
	<path d="M0 0h6v6H0zM0 8h6v6H0zM8 0h14v2H8zM8 4h14v2H8zM8 8h14v2H8zM8 12h14v2H8z"/>
</symbol>
<symbol id="location" viewBox="0 0 14 17">
	<path d="M7 1.6c3 0 5.4 2.5 5.4 5.5 0 1.4-.6 2.9-1.6 3.9L7 14.8l-3.9-3.9c-1-1-1.5-2.5-1.5-3.9C1.6 4 4 1.6 7 1.6M7 0C3.1 0 0 3.2 0 7c0 1.9.8 3.7 2 5l5 5 5-5c1.2-1.3 2-3.1 2-5 0-3.8-3.1-7-7-7z"/>
	<path d="M7 5.8c.6 0 1.2.5 1.2 1.2 0 .6-.5 1.2-1.2 1.2S5.8 7.6 5.8 7 6.4 5.8 7 5.8m0-1.5C5.5 4.3 4.3 5.5 4.3 7S5.5 9.7 7 9.7 9.7 8.5 9.7 7 8.5 4.3 7 4.3z"/>
</symbol>
<symbol id="logo" viewBox="0 0 137 40">
	<path fill="#1CA9FA" fill-rule="evenodd" d="M13.548 24.044l-1.937-4.72-2.574-3.278-4.512 7.998 1.735 4.91 2.777 3.09 2.913-3.602 1.598-4.398z" clip-rule="evenodd"/>
	<path fill="#B717FF" fill-rule="evenodd" d="M22.556 24.044l1.805-4.782 2.706-3.216 4.512 7.998-1.554 4.258-2.957 3.741-2.707-3.741-1.805-4.258z" clip-rule="evenodd"/>
	<path fill="#084AEC" fill-rule="evenodd" d="M22.564 7.999L18.052 0l-4.511 7.999 1.59 4.788 2.921 3.21 2.966-3.21 1.546-4.788z" clip-rule="evenodd"/>
	<path fill="#197DFF" fill-rule="evenodd" d="M18.038 32l-4.511-7.998-4.512 7.999L13.527 40l4.511-8z" clip-rule="evenodd"/>
	<path fill="#197DFF" fill-rule="evenodd" d="M18.038 16.022l-4.511-7.999-4.512 8 4.512 7.998 4.511-7.999z" clip-rule="evenodd"/>
	<path fill="#4ED3FF" fill-rule="evenodd" d="M9.023 32l-4.511-7.998L0 32.001 4.512 40l4.511-8z" clip-rule="evenodd"/>
	<path fill="#7E20FF" fill-rule="evenodd" d="M18.064 16.022l4.512-7.999 4.512 8-4.512 7.998-4.512-7.999z" clip-rule="evenodd"/>
	<path fill="#FA28F6" fill-rule="evenodd" d="M27.08 32l4.512-7.998 4.511 7.999L31.592 40l-4.512-8z" clip-rule="evenodd"/>
	<path fill="#7E20FF" fill-rule="evenodd" d="M27.088 32l-4.512-7.998-4.512 7.999L22.576 40l4.512-8z" clip-rule="evenodd"/>
	<path fill="#002B88" fill-rule="evenodd" d="M123.502 35.853h-3.948v-7.528l-5.507 2.76c-.367.183-.84.336-1.244.336h-.802c-.649 0-1.271-.26-1.729-.72a2.465 2.465 0 01-.716-1.74V17.957h3.953v9.49l6.045-3.03v-6.46h3.948v17.896zM46.569 31.24c-.344.14-.718.212-1.11.24h-.416a2.441 2.441 0 01-2.027-1.083 2.472 2.472 0 01-.241-2.296l7.102-17.717h4.563l8.457 21.096h-4.563l-1.741-4.344-10.025 4.104zm45.534.18h-3.824v-2.83l-5.054 2.534c-.334.163-.777.295-1.104.297h-1.032c-.648 0-1.27-.26-1.729-.72a2.468 2.468 0 01-.716-1.74V21.72c0-1.075.424-2.105 1.18-2.865a4.018 4.018 0 012.631-1.181v-.006h9.648v13.753zm15.44 0H96.529c-.648 0-1.27-.259-1.729-.72a2.467 2.467 0 01-.716-1.74V17.669h9.552V10.51h3.907v20.91zm-39.844 0h-3.926V17.669H67.7v2.102l4.547-1.936a2.26 2.26 0 01.894-.166h.875c.692 0 1.355.277 1.844.768.49.493.765 1.16.765 1.856v11.129h-3.986v-9.918l-4.939 2.103v7.815zm61.795 0h-3.956V17.958h3.956v2.171l2.852-1.43a3.453 3.453 0 012.65-.185A3.48 3.48 0 01137 20.266l-7.506 3.763v7.392zm-25.858-9.908h-5.545v5.942h5.545v-5.942zm-15.357 0h-5.606v5.9l5.606-2.811v-3.089zm-40.51 5.512l7.541-3.088-3.151-7.86-4.39 10.948z" clip-rule="evenodd"/>
</symbol>
<symbol id="logout" viewBox="0 0 20 22">
	<style>
		.st0{fill:none;stroke:#000;stroke-width:2;stroke-linecap:round;stroke-linejoin:round}
	</style>
	<path d="M8 21H3a2 2 0 01-2-2V3a2 2 0 012-2h5M15 15l4-4-4-4M19 11H7" class="st0"/>
</symbol>
<symbol id="m-cart" viewBox="0 0 14 14">
	<path d="M14 2.9s-.1 0 0 0c0-.1-.1-.1-.1-.1L11.7.2c-.1-.1-.2-.2-.4-.2H2.7c-.2 0-.3.1-.4.2L.1 2.8V3C0 3 0 3 0 3.1v9.1c0 1 .9 1.8 2 1.8h10c1.1 0 2-.8 2-1.8V3.1v-.2zM3 1h8l1.3 1.6H1.6L3 1zm9 12H2c-.5 0-.9-.4-.9-.8V3.6h11.8v8.6c0 .5-.4.8-.9.8z"/>
	<path d="M9.9 5.2c-.3 0-.5.2-.5.5 0 1.2-1 2.1-2.3 2.1s-2.4-.9-2.4-2.1c0-.3-.2-.5-.5-.5s-.6.2-.6.5c0 1.7 1.5 3.1 3.4 3.1s3.4-1.4 3.4-3.1c0-.3-.2-.5-.5-.5z"/>
</symbol>
<symbol id="m-close" viewBox="0 0 14 14">
	<path d="M13.8 12.8L8 7l5.8-5.8c.1-.1.2-.3.2-.5 0-.4-.3-.7-.7-.7-.2 0-.4.1-.5.2L7 6 1.2.2C1.1.1.9 0 .7 0 .3 0 0 .3 0 .7c0 .2.1.4.2.5L6 7 .2 12.8c-.1.2-.2.3-.2.5 0 .4.3.7.7.7.2 0 .4-.1.5-.2L7 8l5.8 5.8c.1.1.3.2.5.2.4 0 .7-.3.7-.7 0-.2-.1-.4-.2-.5z"/>
</symbol>
<symbol id="m-dropdown" viewBox="0 0 10 5">
	<path d="M5 5L0 0h10z"/>
</symbol>
<symbol id="m-history" viewBox="0 0 14 13">
	<path d="M7.3 0C4.9 0 2.7 1.3 1.6 3.3L0 1.7v4.4h4.6l-2-1.9c.9-1.7 2.6-2.8 4.7-2.8 2.9 0 5.3 2.3 5.3 5.1s-2.4 5.1-5.3 5.1c-2.3 0-4.2-1.4-5-3.4H.9c.8 2.7 3.4 4.8 6.4 4.8C11 13 14 10.1 14 6.5S11 0 7.3 0zm-1 3.4v3.5l3.3 1.9.6-.9-2.9-1.6V3.4h-1z" opacity=".9"/>
</symbol>
<symbol id="m-left-arrow" viewBox="0 0 4 7">
	<path d="M3.3 7l.7-.7-2.6-2.8L4 .7 3.3 0 0 3.5z"/>
</symbol>
<symbol id="m-mail" viewBox="0 0 17 12">
	<style>
		.st0{fill:#231f20}
	</style>
	<path d="M14.1 1.6c1.1-.9.8-1.6-.6-1.6h-10c-1.4 0-1.7.7-.6 1.6l3.5 2.7c1.1.9 3 .9 4.1 0l3.6-2.7z" class="st0"/>
	<path d="M11.3 6.1c-1.1.9-2.1 1.6-2.1 1.6-.1 0-.2 0-.3.1h-.7-.1c-.1-.1-.2-.1-.2-.2 0 0-1-.7-2.1-1.6L2.1 3.3C.9 2.4 0 2.8 0 4.1v5.4C0 10.9 1.2 12 2.7 12h11.6c1.5 0 2.7-1.1 2.7-2.4V4.1c0-1.3-.9-1.7-2.1-.9l-3.6 2.9z" class="st0"/>
</symbol>
<symbol id="m-menu" viewBox="0 0 20 8">
	<path d="M20 1c0 .5-.5 1-1 1H1c-.6 0-1-.5-1-1 0-.6.4-1 1-1h18c.5 0 1 .4 1 1zM20 7c0 .6-.5 1-1 1H1c-.6 0-1-.4-1-1s.4-1 1-1h18c.5 0 1 .4 1 1z"/>
</symbol>
<symbol id="m-minus" viewBox="0 0 8 8">
	<path d="M0 3h8v2H0z"/>
</symbol>
<symbol id="m-phone" viewBox="0 0 14 14">
	<path d="M2.8 6.1c1.1 2.2 3 4 5.1 5.1l1.7-1.7c.2-.2.5-.3.8-.2.9.3 1.8.5 2.8.5.5 0 .8.3.8.8v2.6c0 .5-.3.8-.8.8C5.9 14 0 8.1 0 .8 0 .3.3 0 .8 0h2.7c.5 0 .8.3.8.8 0 .9.2 1.9.5 2.8.1.2 0 .5-.2.8L2.8 6.1z"/>
</symbol>
<symbol id="m-plus" viewBox="0 0 8 8">
	<path d="M8 3H5V0H3v3H0v2h3v3h2V5h3z"/>
</symbol>
<symbol id="m-right-arrow" viewBox="0 0 4 7">
	<path d="M.7 0L0 .7l2.6 2.8L0 6.3l.7.7L4 3.5z"/>
</symbol>
<symbol id="m-search" viewBox="0 0 12 12">
	<path d="M11.8 11L8.7 8c.7-.8 1.1-2 1.1-3.1C9.9 2.1 7.6 0 4.9 0 2.3 0 0 2.1 0 4.9s2.1 4.9 4.9 4.9C6 9.8 7.2 9.4 8 8.7l3.1 3.1c.1.1.2.2.4.2.3 0 .5-.2.5-.5 0-.2-.1-.4-.2-.5zM4.9 8.7C2.8 8.7 1.1 7 1.1 4.9c0-2.1 1.7-3.8 3.7-3.8 2.1 0 3.8 1.7 3.8 3.8.1 2.1-1.7 3.8-3.7 3.8z"/>
</symbol>
<symbol id="m-showmore" viewBox="0 0 14 2">
	<circle cx="1" cy="1" r="1"/>
	<circle cx="13" cy="1" r="1"/>
	<circle cx="7" cy="1" r="1"/>
</symbol>
<symbol id="m-user" viewBox="0 0 15 12">
	<path d="M7.5 5.8c1.6 0 2.9-1.3 2.9-2.9S9.2 0 7.5 0 4.6 1.4 4.6 3c0 1.5 1.3 2.8 2.9 2.8zm0-4.5c.9 0 1.7.7 1.7 1.7s-.8 1.6-1.7 1.6S5.8 3.9 5.8 3s.8-1.7 1.7-1.7zM14.9 11.3c0-.1-1.8-4.2-7.5-4.2S0 11.3 0 11.3c-.1.3.1.6.4.7h.3c.3 0 .5-.2.6-.4.1-.2 1.5-3.4 6.3-3.4s6.2 3.3 6.3 3.4c.1.2.3.4.6.4h.3c.1-.1.3-.4.1-.7z"/>
</symbol>
<symbol id="medium-arrow-left" viewBox="0 0 8 16">
	<path d="M8 0H6.5L0 8l6.5 8H8L1.4 8z"/>
</symbol>
<symbol id="medium-arrow-right" viewBox="0 0 8 16">
	<path d="M0 0h1.5L8 8l-6.5 8H0l6.6-8z"/>
</symbol>
<symbol id="menu" viewBox="0 0 20 20">
	<path fill="#737373" d="M6.906 0H2.313A2.315 2.315 0 000 2.313v4.593a2.315 2.315 0 002.313 2.313h4.593a2.315 2.315 0 002.313-2.313V2.313A2.315 2.315 0 006.906 0zm.75 6.906c0 .414-.336.75-.75.75H2.313a.751.751 0 01-.75-.75V2.313c0-.414.336-.75.75-.75h4.593c.414 0 .75.336.75.75v4.593zM17.656 0h-4.531a2.346 2.346 0 00-2.344 2.344v4.531a2.346 2.346 0 002.344 2.344h4.531A2.346 2.346 0 0020 6.875V2.344A2.346 2.346 0 0017.656 0zm.782 6.875c0 .43-.351.781-.782.781h-4.531a.782.782 0 01-.781-.781V2.344c0-.431.35-.781.781-.781h4.531c.431 0 .782.35.782.78v4.532zM6.906 10.781H2.313A2.316 2.316 0 000 13.094v4.593A2.315 2.315 0 002.313 20h4.593a2.315 2.315 0 002.313-2.313v-4.593a2.316 2.316 0 00-2.313-2.313zm.75 6.906c0 .414-.336.75-.75.75H2.313a.751.751 0 01-.75-.75v-4.593c0-.414.336-.75.75-.75h4.593c.414 0 .75.336.75.75v4.593zM17.656 10.781h-4.531a2.347 2.347 0 00-2.344 2.344v4.531A2.346 2.346 0 0013.125 20h4.531A2.346 2.346 0 0020 17.656v-4.531a2.346 2.346 0 00-2.344-2.344zm.782 6.875c0 .431-.351.782-.782.782h-4.531a.782.782 0 01-.781-.782v-4.531c0-.43.35-.781.781-.781h4.531c.431 0 .782.35.782.781v4.531z"/>
</symbol>
<symbol id="minus" viewBox="0 0 14 14">
	<path d="M0 6h14v2H0z"/>
	<path d="M0 6h14v2H0z"/>
</symbol>
<symbol id="next-small" viewBox="0 0 12 36">
	<path d="M0 36h2.1L12 18 2.1 0H0l9.7 18z"/>
</symbol>
<symbol id="next" viewBox="0 0 9 69.3">
	<path d="M0 0h1.7L9 34.7 1.7 69.3H0l7.4-34.6z"/>
</symbol>
<symbol id="pen" viewBox="0 0 15 15">
	<path fill="#737373" d="M14.355 2.494L12.062.2a.687.687 0 00-.97 0L.262 11.03a.674.674 0 00-.201.467l-.06 2.35a.685.685 0 00.685.708h.022l2.359-.06a.674.674 0 00.466-.2L14.355 3.463a.687.687 0 000-.97zM2.784 13.086l-1.348.034.034-1.348 7.797-7.8.202.196 1.112 1.12-7.797 7.798zm8.76-8.761l-.193-.195-1.12-1.12 1.314-1.315L12.86 3.01l-1.316 1.314z"/>
</symbol>
<symbol id="pencil" viewBox="0 0 23 23">
	<path stroke="#fff" stroke-linecap="round" stroke-linejoin="round" stroke-width="2" d="M11.5 19.167h8.625M15.813 3.354a2.033 2.033 0 112.874 2.875L6.709 18.21l-3.833.958.958-3.834 11.98-11.979z"/>
</symbol>
<symbol id="plus" viewBox="0 0 14 14">
	<path d="M14 6H8V0H6v6H0v2h6v6h2V8h6z"/>
</symbol>
<symbol id="prev-small" viewBox="0 0 12 36">
	<path d="M12 0H9.9L0 18l9.9 18H12L2.3 18z"/>
</symbol>
<symbol id="prev" viewBox="0 0 9 69.3">
	<path d="M9 69.3H7.3L0 34.6 7.3 0H9L1.6 34.6z"/>
</symbol>
<symbol id="quiz-checked" viewBox="0 0 20 20">
	<circle r="9" fill="#fff" stroke="#EFF3F8" stroke-width="2" transform="matrix(-1 0 0 1 10 10)"/>
	<path stroke="#58CD55" stroke-width="2" d="M7 10.03L9.31 12 14 8"/>
</symbol>
<symbol id="quiz-radio" viewBox="0 0 32 33">
	<path fill="#fff" d="M1 5.5h30a1 1 0 100-2H1a1 1 0 100 2zM31 11.5H1a1 1 0 100 2h30a1 1 0 100-2zM31 19.5H1a1 1 0 100 2h30a1 1 0 100-2zM11 27.5H1a1 1 0 000 2h10a1 1 0 100-2z"/>
</symbol>
<symbol id="quiz" viewBox="0 0 203 30">
	<path fill="#fff" d="M0 2a2 2 0 012-2h198.639a2 2 0 011.973 2.329l-4.333 26A2 2 0 01196.306 30H2a2 2 0 01-2-2V2z"/>
</symbol>
<symbol id="search" viewBox="0 0 13 13">
	<path fill="#737373" d="M9.713 8.815a5.442 5.442 0 001.17-3.369A5.456 5.456 0 005.433 0C2.429 0 0 2.449 0 5.446c0 2.998 2.443 5.447 5.434 5.447 1.2 0 2.399-.416 3.361-1.173L12.067 13l.933-.935-3.287-3.25zm-4.28.787c-2.264 0-4.115-1.855-4.115-4.126 0-2.27 1.85-4.126 4.116-4.126 2.265 0 4.116 1.855 4.116 4.126 0 2.27-1.85 4.126-4.116 4.126z"/>
</symbol>
<symbol id="show-more-plus" viewBox="0 0 14 14">
	<path d="M14 6H8V0H6v6H0v2h6v6h2V8h6z"/>
</symbol>
<symbol id="social-fb" viewBox="0 0 34 34">
	<rect width="34" height="34" fill="#395795" rx="2"/>
	<path fill="#fff" d="M17.877 14.805V13.05c0-.484.393-.878.878-.878h.878V9.98h-1.756a2.633 2.633 0 00-2.632 2.632v2.194h-1.756V17h1.755v7.021h2.633V17h1.756l.877-2.195h-2.633z"/>
</symbol>
<symbol id="social-google-plus" viewBox="0 0 34 34">
	<rect width="34" height="34" fill="#DA4C3D" rx="2"/>
	<path fill="#fff" d="M13.668 17.866l-.47 1.742-1.713.036a6.647 6.647 0 01-.803-3.177c0-1.111.272-2.16.753-3.082l1.526.278.669 1.51a3.966 3.966 0 00.038 2.693zM24.037 15.216a6.683 6.683 0 01-2.402 6.479l-1.922-.098-.272-1.69a4 4 0 001.727-2.04h-3.602v-2.651h6.471z"/>
	<path fill="#fff" d="M21.635 21.694a6.728 6.728 0 01-4.217 1.477 6.74 6.74 0 01-5.933-3.527l2.183-1.778a4.004 4.004 0 003.75 2.586c.738 0 1.43-.198 2.023-.545l2.194 1.787zM21.718 11.308l-2.182 1.777a3.996 3.996 0 00-2.118-.602 4.005 4.005 0 00-3.788 2.69l-2.194-1.788a6.739 6.739 0 015.982-3.62c1.635 0 3.133.579 4.3 1.543z"/>
</symbol>
<symbol id="social-inst-colored" viewBox="0 0 34 34">
	<rect width="34" height="34" fill="url(#paint0_linear)" rx="2"/>
	<path fill="#fff" d="M20.492 9.799h-6.148c-2 0-3.628 1.62-3.628 3.61v6.117c0 1.99 1.628 3.61 3.629 3.61h6.147c2 0 3.628-1.62 3.628-3.61v-6.117c0-1.99-1.628-3.61-3.628-3.61zm-3.074 10.315c-2.02 0-3.665-1.636-3.665-3.646 0-2.011 1.644-3.647 3.665-3.647s3.665 1.636 3.665 3.647c0 2.01-1.644 3.646-3.665 3.646zm3.753-6.433a1.081 1.081 0 01-1.083-1.078c0-.594.485-1.078 1.083-1.078.597 0 1.083.484 1.083 1.078 0 .594-.486 1.078-1.083 1.078z"/>
	<path fill="#fff" fill-rule="evenodd" d="M17.42 19.617a3 3 0 100-6 3 3 0 000 6zm0 1.15a4.149 4.149 0 100-8.298 4.149 4.149 0 000 8.297z" clip-rule="evenodd"/>

</symbol>
<symbol id="social-inst" viewBox="0 0 34 34">
	<rect width="34" height="34" fill="#F72293" rx="2"/>
	<path fill="#fff" d="M20.073 10.298h-6.147c-2 0-3.628 1.627-3.628 3.628v6.147c0 2 1.627 3.628 3.628 3.628h6.147c2 0 3.628-1.627 3.628-3.628v-6.147c0-2-1.627-3.628-3.628-3.628zM17 20.665A3.669 3.669 0 0113.335 17 3.669 3.669 0 0117 13.335 3.669 3.669 0 0120.665 17 3.669 3.669 0 0117 20.665zm3.752-6.466a1.084 1.084 0 010-2.166 1.084 1.084 0 010 2.166z"/>
	<path fill="#fff" fill-rule="evenodd" d="M17 20a3 3 0 100-6 3 3 0 000 6zm0 1.148a4.149 4.149 0 100-8.297 4.149 4.149 0 000 8.297z" clip-rule="evenodd"/>
</symbol>
<symbol id="social-ok" viewBox="0 0 34 34">
	<rect width="34" height="34" fill="#F08F1D" rx="2"/>
	<path fill="#fff" d="M12.495 17.064c-.415.815.056 1.205 1.13 1.87.914.565 2.175.77 2.986.854l-3.194 3.072c-.93.89.567 2.32 1.496 1.448l2.514-2.425c.963.926 1.886 1.814 2.515 2.428.93.876 2.425-.541 1.506-1.448l-3.204-3.072c.82-.083 2.063-.301 2.966-.853 1.074-.67 1.544-1.06 1.136-1.874-.247-.463-.913-.85-1.8-.18 0 0-1.196.916-3.126.916s-3.127-.917-3.127-.917c-.886-.672-1.554-.282-1.798.18z"/>
	<path fill="#fff" d="M17.419 16.563c2.353 0 4.274-1.839 4.274-4.102 0-2.274-1.921-4.112-4.274-4.112-2.354 0-4.275 1.838-4.275 4.112 0 2.263 1.92 4.102 4.275 4.102zm0-6.131c1.156 0 2.099.907 2.099 2.029 0 1.112-.943 2.02-2.1 2.02-1.156 0-2.099-.908-2.099-2.02 0-1.123.943-2.03 2.1-2.03z"/>
</symbol>
<symbol id="social-plus" viewBox="0 0 34 34">
	<rect width="34" height="34" fill="#333" rx="2"/>
	<path fill="#fff" d="M15.76 10.298h2.48v13.405h-2.48z"/>
	<path fill="#fff" d="M23.702 15.76v2.48H10.297v-2.48z"/>
</symbol>
<symbol id="social-tg" viewBox="0 0 34 34">
	<rect width="34" height="34" fill="#34A3D8" rx="2"/>
	<path fill="#fff" d="M11.59 18.187l2.115 5.285 2.752-2.753 4.72 3.752L24.5 9.529l-17 7.081 4.09 1.577zm8.052-4.37l-5.203 4.745-.648 2.443-1.198-2.994 7.05-4.195z"/>
</symbol>
<symbol id="social-vk" viewBox="0 0 34 34">
	<rect width="34" height="34" fill="#5181B8" rx="2"/>
	<path fill="#fff" d="M26.389 21.364a1.305 1.305 0 00-.065-.123c-.329-.593-.958-1.321-1.887-2.184l-.02-.02-.01-.01-.01-.01h-.01c-.421-.401-.688-.672-.8-.81-.204-.264-.25-.53-.138-.8.079-.205.375-.636.889-1.295.27-.35.484-.629.642-.84 1.14-1.515 1.634-2.483 1.483-2.905l-.06-.099c-.039-.059-.141-.113-.305-.163-.165-.05-.376-.057-.633-.024l-2.846.02a.37.37 0 00-.198.004l-.128.03-.05.025-.04.03a.44.44 0 00-.108.103.675.675 0 00-.098.173 16.13 16.13 0 01-1.058 2.224c-.244.408-.468.762-.672 1.062-.204.3-.375.52-.514.662a3.573 3.573 0 01-.375.34c-.112.086-.198.123-.257.11a7.144 7.144 0 01-.168-.04.657.657 0 01-.222-.242 1.082 1.082 0 01-.114-.386 4.227 4.227 0 01-.035-.4 8.32 8.32 0 01.005-.474c.007-.205.01-.343.01-.415 0-.25.005-.522.015-.816l.025-.696c.006-.171.01-.353.01-.544 0-.19-.012-.34-.035-.45a1.54 1.54 0 00-.104-.316.532.532 0 00-.202-.237 1.14 1.14 0 00-.331-.133c-.35-.08-.794-.122-1.334-.129-1.226-.013-2.013.066-2.362.238a1.333 1.333 0 00-.376.296c-.118.145-.135.224-.05.237.396.06.676.201.84.425l.06.119c.046.085.092.237.139.454.046.218.075.458.088.721.033.481.033.893 0 1.236-.033.342-.064.61-.093.8a1.602 1.602 0 01-.253.682.17.17 0 01-.049.05.74.74 0 01-.267.049c-.092 0-.204-.046-.336-.139a2.37 2.37 0 01-.41-.38 5.086 5.086 0 01-.479-.677c-.178-.29-.362-.632-.553-1.028l-.158-.286a24.663 24.663 0 01-.405-.806 15.523 15.523 0 01-.455-1.022.652.652 0 00-.237-.317l-.05-.03a.679.679 0 00-.158-.083 1.054 1.054 0 00-.227-.065l-2.708.02c-.276 0-.464.063-.563.188l-.04.06a.32.32 0 00-.03.157c0 .073.02.162.06.267.395.93.825 1.825 1.29 2.688.464.863.868 1.558 1.21 2.085.343.527.692 1.024 1.048 1.492.355.468.59.768.706.9.115.131.206.23.272.296l.247.237c.158.158.39.347.697.568.306.22.645.438 1.017.652.373.214.806.389 1.3.524s.975.19 1.443.163h1.136c.23-.02.405-.092.524-.217l.04-.05c.026-.04.05-.1.073-.182.023-.083.035-.173.035-.272a3.252 3.252 0 01.064-.766c.05-.227.105-.398.168-.514a1.261 1.261 0 01.38-.434.647.647 0 01.08-.035c.158-.053.344-.002.558.153.214.155.415.346.603.573.188.228.413.483.677.766.263.284.494.494.691.633l.198.118c.132.08.303.152.514.218.21.066.395.082.553.05l2.53-.04c.25 0 .445-.042.583-.124.138-.082.22-.173.247-.272a.766.766 0 00.005-.336 1.238 1.238 0 00-.07-.262z"/>
</symbol>
<symbol id="social-ya" viewBox="0 0 34 35">
	<rect width="34" height="34" y=".793" fill="#ECECEC" rx="2"/>
	<path fill="#F80000" d="M20.703 9.437H18.48c-2.253 0-4.526 1.663-4.526 5.379 0 1.925.816 3.424 2.311 4.276l-2.737 4.954a.71.71 0 00-.009.71.677.677 0 00.593.329h1.384c.315 0 .56-.152.678-.419l2.566-5.019h.187v4.812c0 .34.286.626.625.626h1.21c.38 0 .645-.265.645-.645V10.12c0-.403-.29-.684-.704-.684zm-1.776 7.98h-.33c-1.281 0-2.046-1.045-2.046-2.797 0-2.178.966-2.954 1.87-2.954h.506v5.751z"/>
</symbol>
<symbol id="sort-arrow" viewBox="0 0 11 6">
	<path d="M11 1.1L9.9 0 5.5 3.9 1.1 0 0 1.1 5.5 6z"/>
</symbol>
<symbol id="swiper-arrow-left" viewBox="0 0 5 9">
	<path fill="#fff" fill-rule="evenodd" d="M2.006 4.494L5 7.9 3.949 9 0 4.494 3.949 0 5 1.1 2.006 4.494z" clip-rule="evenodd"/>
	<path fill="#fff" fill-rule="evenodd" d="M2.006 4.494L5 7.9 3.949 9 0 4.494 3.949 0 5 1.1 2.006 4.494z" clip-rule="evenodd"/>
	<path fill="#fff" fill-rule="evenodd" d="M2.006 4.494L5 7.9 3.949 9 0 4.494 3.949 0 5 1.1 2.006 4.494z" clip-rule="evenodd"/>
	<path fill="#fff" fill-rule="evenodd" d="M2.006 4.494L5 7.9 3.949 9 0 4.494 3.949 0 5 1.1 2.006 4.494z" clip-rule="evenodd"/>
</symbol>
<symbol id="swiper-arrow-right" viewBox="0 0 5 9">
	<path fill="#fff" fill-rule="evenodd" d="M2.994 4.494L0 7.9 1.051 9 5 4.494 1.051 0 0 1.1l2.994 3.394z" clip-rule="evenodd"/>
	<path fill="#fff" fill-rule="evenodd" d="M2.994 4.494L0 7.9 1.051 9 5 4.494 1.051 0 0 1.1l2.994 3.394z" clip-rule="evenodd"/>
	<path fill="#fff" fill-rule="evenodd" d="M2.994 4.494L0 7.9 1.051 9 5 4.494 1.051 0 0 1.1l2.994 3.394z" clip-rule="evenodd"/>
	<path fill="#fff" fill-rule="evenodd" d="M2.994 4.494L0 7.9 1.051 9 5 4.494 1.051 0 0 1.1l2.994 3.394z" clip-rule="evenodd"/>
</symbol>
<symbol id="t-menu" viewBox="0 0 30 16">
	<path fill="none" d="M1 2h28a1 1 0 000-2H1a1 1 0 000 2zm28 5H1a1 1 0 000 2h28a1 1 0 000-2zm0 7H1a1 1 0 000 2h28a1 1 0 000-2z"/>
</symbol>
<symbol id="tall-arrow-left" viewBox="0 0 8 30">
	<path d="M8 0H6.5L0 15l6.5 15H8L1.4 15z"/>
</symbol>
<symbol id="tall-arrow-right" viewBox="0 0 8 30">
	<path d="M0 0h1.5L8 15 1.5 30H0l6.6-15z"/>
</symbol>
<symbol id="textarea-add-img" viewBox="0 0 17 17">
	<path d="M2.262.902h12.495c.797 0 1.442.646 1.442 1.442V14.84c0 .796-.645 1.442-1.442 1.442H2.262A1.442 1.442 0 01.82 14.84V2.344c0-.796.645-1.442 1.442-1.442zm-.481 9.415l2.062-2.061a.48.48 0 01.677 0l2.548 2.542 3.023-3.023a.48.48 0 01.677 0l4.47 4.465V2.344a.48.48 0 00-.48-.48H2.261a.48.48 0 00-.481.48v7.973z"/>
	<path d="M7.548 3.306a1.922 1.922 0 110 3.845 1.922 1.922 0 010-3.845zm0 2.883a.961.961 0 100-1.922.961.961 0 000 1.922z"/>
</symbol>
<symbol id="textarea-add-link" viewBox="0 0 18 18">
	<path d="M10.382 6.72a3.966 3.966 0 00-5.609 0L1.17 10.324a3.966 3.966 0 005.606 5.612l2.974-2.974a.283.283 0 00-.2-.485h-.114a4.768 4.768 0 01-1.813-.351.283.283 0 00-.309.062l-2.139 2.142a1.7 1.7 0 01-2.405-2.405L6.388 8.31a1.7 1.7 0 012.402 0c.447.421 1.145.421 1.592 0 .192-.192.31-.448.329-.72a1.133 1.133 0 00-.329-.872z"/>
	<path d="M15.847 1.255a3.966 3.966 0 00-5.61 0l-2.97 2.97a.283.283 0 00.206.484h.105c.62-.002 1.236.119 1.81.354A.283.283 0 009.697 5l2.133-2.13a1.7 1.7 0 012.405 2.405L11.578 7.93l-.023.025-.929.924a1.7 1.7 0 01-2.402 0 1.161 1.161 0 00-1.592 0 1.133 1.133 0 000 1.597c.328.33.711.598 1.133.793.06.029.119.051.178.077.06.025.122.045.182.068.06.023.121.042.18.06l.168.045c.113.028.227.05.343.07.14.021.28.034.422.04H9.453l.17-.02c.062-.002.128-.017.201-.017h.097l.195-.028.09-.017.165-.034h.031a3.966 3.966 0 001.839-1.042l3.606-3.607a3.966 3.966 0 000-5.609z"/>
</symbol>
<symbol id="tile" viewBox="0 0 22 14">
	<path d="M0 0h10v6H0zM0 8h10v6H0zM12 8h10v6H12zM12 0h10v6H12z"/>
</symbol>
<symbol id="timer" viewBox="0 0 21 9">
	<path d="M0 .3C.1.1.3 0 .6 0h9.1c.3 0 .3 0 .3.3v8.5c0 .2.1.2-.2.2H.7c-.4 0-.6-.1-.7-.3V.3zm5.4 4.2v1.6c0 .3.2.5.5.5h1.6c.3 0 .5-.2.5-.5V2.9c0-.3-.2-.5-.5-.5H5.9c-.4 0-.5.2-.5.5v1.6zm-.8 0V2.9c0-.3-.2-.5-.5-.5H2.4c-.3 0-.4.2-.4.5v3.2c0 .3.2.4.5.4h1.7c.3 0 .5-.2.5-.5-.1-.4-.1-1-.1-1.5zM21 8.7c-.1.2-.3.3-.6.3h-9.2c-.2 0-.2-.1-.2-.2V.2c0-.2 0-.2.2-.2h9.3c.3 0 .4.1.5.3v8.4zm-5.4-4.2V2.9c0-.3-.2-.5-.5-.5h-1.6c-.4 0-.5.2-.5.5v3.2c0 .3.2.5.5.5h1.6c.4 0 .5-.2.5-.5V4.5zm3.4 0V2.9c0-.3-.2-.5-.5-.5h-1.7c-.3 0-.5.2-.5.5v3.2c0 .3.2.5.5.5h1.7c.3 0 .5-.2.5-.5V4.5z"/>
	<path d="M7.2 3.7c0 .4 0 .4-.4.4s-.4 0-.4-.4 0-.4.4-.4.4 0 .4.4zM7.2 5.3c0 .4 0 .4-.4.4s-.4 0-.4-.4-.1-.4.4-.4c.4 0 .4 0 .4.4zM3.7 4.5v1c0 .1 0 .2-.2.2H3c-.1 0-.1 0-.1-.1V3.4c0-.1 0-.1.1-.1.7-.1.7-.1.7.6v.6zM13.8 4.5v-1c0-.1 0-.2.2-.2h.5c.1 0 .1 0 .1.1v2.2c0 .1 0 .1-.1.1H14c-.1 0-.2 0-.2-.2v-1zM18.1 4.5v1c0 .1 0 .2-.2.2s-.4.1-.6 0c-.1-.1 0-.4 0-.5V3.6c0-.2 0-.2.2-.2s.4-.1.6 0c.1.1 0 .3 0 .5v.6z"/>
</symbol>
<symbol id="trash-basket-red" viewBox="0 0 15 15">
	<g fill="#D74343" clip-path="url(#clip0)">
		<path d="M9.57 5.435a.351.351 0 00-.352.35v6.64a.351.351 0 00.702 0v-6.64a.351.351 0 00-.35-.35zM5.424 5.435a.351.351 0 00-.351.35v6.64a.351.351 0 00.702 0v-6.64a.351.351 0 00-.351-.35z"/>
		<path d="M2.403 4.466v8.655c0 .511.187.992.515 1.336.326.346.78.542 1.255.543h6.647c.475 0 .929-.197 1.255-.543.328-.344.515-.825.515-1.336V4.466a1.342 1.342 0 00-.344-2.64h-1.799v-.438A1.38 1.38 0 009.057 0h-3.12a1.38 1.38 0 00-1.391 1.388v.439H2.747a1.342 1.342 0 00-.344 2.639zm8.417 9.831H4.173c-.6 0-1.068-.516-1.068-1.176V4.497h8.783v8.624c0 .66-.468 1.176-1.068 1.176zM5.248 1.387a.676.676 0 01.689-.684h3.12a.677.677 0 01.688.685v.439H5.248v-.44zM2.747 2.53h9.499a.632.632 0 010 1.265H2.747a.632.632 0 110-1.265z"/>
		<path d="M7.496 5.435a.351.351 0 00-.35.35v6.64a.351.351 0 00.702 0v-6.64a.351.351 0 00-.352-.35z"/>
	</g>

</symbol>
<symbol id="trash-basket" viewBox="0 0 15 15">
	<g fill="#fff" clip-path="url(#clip0)">
		<path d="M9.57 5.435a.351.351 0 00-.352.35v6.64a.351.351 0 00.702 0v-6.64a.351.351 0 00-.35-.35zM5.424 5.435a.351.351 0 00-.351.35v6.64a.351.351 0 00.702 0v-6.64a.351.351 0 00-.351-.35z"/>
		<path d="M2.403 4.466v8.655c0 .511.187.992.515 1.336.326.346.78.542 1.255.543h6.647c.475 0 .929-.197 1.255-.543.328-.344.515-.825.515-1.336V4.466a1.342 1.342 0 00-.344-2.64h-1.799v-.438A1.38 1.38 0 009.057 0h-3.12a1.38 1.38 0 00-1.391 1.388v.439H2.747a1.342 1.342 0 00-.344 2.639zm8.417 9.831H4.173c-.6 0-1.068-.516-1.068-1.176V4.497h8.783v8.624c0 .66-.468 1.176-1.068 1.176zM5.248 1.387a.676.676 0 01.689-.684h3.12a.677.677 0 01.688.685v.439H5.248v-.44zM2.747 2.53h9.499a.632.632 0 010 1.265H2.747a.632.632 0 110-1.265z"/>
		<path d="M7.496 5.435a.351.351 0 00-.35.35v6.64a.351.351 0 00.702 0v-6.64a.351.351 0 00-.352-.35z"/>
	</g>

</symbol>
<symbol id="triangle-arrow-left" viewBox="0 0 8 17">
	<path d="M0 8.5L8 17V0z"/>
</symbol>
<symbol id="triangle-arrow-right" viewBox="0 0 8 17">
	<path d="M8 8.5L0 17V0z"/>
</symbol>
<symbol id="ua-social-inst" viewBox="0 0 34 35">
	<rect width="34" height="34" y=".63" fill="#CB0E72" rx="2"/>
	<path fill="#fff" d="M20.073 10.928h-6.147c-2 0-3.628 1.627-3.628 3.628v6.147c0 2 1.627 3.628 3.628 3.628h6.147c2 0 3.628-1.627 3.628-3.628v-6.147c0-2-1.627-3.628-3.628-3.628zM17 21.294a3.669 3.669 0 01-3.665-3.665A3.669 3.669 0 0117 13.966a3.669 3.669 0 013.665 3.665A3.669 3.669 0 0117 21.294zm3.752-6.465a1.084 1.084 0 010-2.166 1.084 1.084 0 010 2.166z"/>
	<path fill="#fff" fill-rule="evenodd" d="M17 20.629a3 3 0 100-6 3 3 0 000 6zm0 1.149a4.149 4.149 0 100-8.298 4.149 4.149 0 000 8.298z" clip-rule="evenodd"/>
</symbol>
<symbol id="ua-social-vk" viewBox="0 0 34 34">
	<rect width="34" height="34" fill="#5181B8" rx="2"/>
	<path fill="#fff" d="M26.389 21.364a1.305 1.305 0 00-.065-.123c-.329-.593-.958-1.321-1.887-2.184l-.02-.02-.01-.01-.01-.01h-.01c-.421-.401-.688-.672-.8-.81-.204-.264-.25-.53-.138-.8.079-.205.375-.636.889-1.295.27-.35.484-.629.642-.84 1.14-1.515 1.634-2.483 1.483-2.905l-.06-.099c-.039-.059-.141-.113-.305-.163-.165-.05-.376-.057-.633-.024l-2.846.02a.37.37 0 00-.198.004l-.128.03-.05.025-.04.03a.44.44 0 00-.108.103.675.675 0 00-.098.173 16.13 16.13 0 01-1.058 2.224c-.244.408-.468.762-.672 1.062-.204.3-.375.52-.514.662a3.573 3.573 0 01-.375.34c-.112.086-.198.123-.257.11a7.144 7.144 0 01-.168-.04.657.657 0 01-.222-.242 1.082 1.082 0 01-.114-.386 4.227 4.227 0 01-.035-.4 8.32 8.32 0 01.005-.474c.007-.205.01-.343.01-.415 0-.25.005-.522.015-.816l.025-.696c.006-.171.01-.353.01-.544 0-.19-.012-.34-.035-.45a1.54 1.54 0 00-.104-.316.532.532 0 00-.202-.237 1.14 1.14 0 00-.331-.133c-.35-.08-.794-.122-1.334-.129-1.226-.013-2.013.066-2.362.238a1.333 1.333 0 00-.376.296c-.118.145-.135.224-.05.237.396.06.676.201.84.425l.06.119c.046.085.092.237.139.454.046.218.075.458.088.721.033.481.033.893 0 1.236-.033.342-.064.61-.093.8a1.602 1.602 0 01-.253.682.17.17 0 01-.049.05.74.74 0 01-.267.049c-.092 0-.204-.046-.336-.139a2.37 2.37 0 01-.41-.38 5.086 5.086 0 01-.479-.677c-.178-.29-.362-.632-.553-1.028l-.158-.286a24.663 24.663 0 01-.405-.806 15.523 15.523 0 01-.455-1.022.652.652 0 00-.237-.317l-.05-.03a.679.679 0 00-.158-.083 1.054 1.054 0 00-.227-.065l-2.708.02c-.276 0-.464.063-.563.188l-.04.06a.32.32 0 00-.03.157c0 .073.02.162.06.267.395.93.825 1.825 1.29 2.688.464.863.868 1.558 1.21 2.085.343.527.692 1.024 1.048 1.492.355.468.59.768.706.9.115.131.206.23.272.296l.247.237c.158.158.39.347.697.568.306.22.645.438 1.017.652.373.214.806.389 1.3.524s.975.19 1.443.163h1.136c.23-.02.405-.092.524-.217l.04-.05c.026-.04.05-.1.073-.182.023-.083.035-.173.035-.272a3.252 3.252 0 01.064-.766c.05-.227.105-.398.168-.514a1.261 1.261 0 01.38-.434.647.647 0 01.08-.035c.158-.053.344-.002.558.153.214.155.415.346.603.573.188.228.413.483.677.766.263.284.494.494.691.633l.198.118c.132.08.303.152.514.218.21.066.395.082.553.05l2.53-.04c.25 0 .445-.042.583-.124.138-.082.22-.173.247-.272a.766.766 0 00.005-.336 1.238 1.238 0 00-.07-.262z"/>
</symbol>
<symbol id="user-actions-icon-articles" viewBox="0 0 14 14">
	<g fill="#737373" clip-path="url(#clip0)">
		<path d="M2.197 11.083h6.708c.885 0 1.604-.719 1.604-1.604V1.604C10.509.72 9.789 0 8.905 0H3.942c-.576 0-1.14.233-1.546.641L1.234 1.803A2.174 2.174 0 00.592 3.35v6.13c0 .884.72 1.603 1.605 1.603zM8.905.875a.73.73 0 01.729.73v7.874a.73.73 0 01-.73.73H2.198a.73.73 0 01-.73-.73V3.35c0-.35.137-.68.385-.928L3.014 1.26c.244-.245.582-.385.928-.385h4.963z"/>
		<path d="M4.822 14h7c.885 0 1.604-.72 1.604-1.604V3.062c0-.885-.72-1.604-1.604-1.604h-.292a.438.438 0 000 .875h.292a.73.73 0 01.729.73v9.332a.73.73 0 01-.73.73h-7a.73.73 0 01-.729-.73v-.291a.438.438 0 00-.875 0v.292c0 .884.72 1.604 1.605 1.604zM3.363 4.958h4.375a.438.438 0 000-.875H3.363a.438.438 0 000 .875z"/>
		<path d="M3.363 6.708h4.375a.438.438 0 000-.875H3.363a.438.438 0 000 .875zM3.363 8.458h4.375a.438.438 0 000-.875H3.363a.438.438 0 000 .875z"/>
	</g>

</symbol>
<symbol id="user-actions-icon-comments" viewBox="0 0 16 14">
	<path fill="#737373" stroke="#737373" stroke-width=".1" d="M15.05 6.312c.01-1.485-.783-2.827-2.06-3.795C11.712 1.548 9.949.95 8.01.95c-1.937 0-3.7.598-4.98 1.567C1.75 3.485.95 4.827.95 6.312c0 1.582.918 3.062 2.463 4.071L2.75 11.9h0a.786.786 0 00.256.945.932.932 0 00.525.205c.177.01.354-.031.531-.1h0l.005-.002 2.68-1.35c.415.058.828.077 1.241.077 1.938 0 3.702-.598 4.982-1.567 1.28-.969 2.079-2.31 2.079-3.795zm0 0s0 0 0 0H15h.05s0 0 0 0zm-8.455 4.357l-.016-.002-.015.007-2.835 1.434.866-2.039.019-.043-.042-.02c-1.61-.802-2.646-2.164-2.646-3.694 0-1.23.674-2.347 1.774-3.16 1.1-.811 2.623-1.315 4.31-1.315 1.69 0 3.212.504 4.312 1.316s1.773 1.93 1.773 3.159c0 1.23-.673 2.347-1.773 3.16-1.1.811-2.623 1.315-4.311 1.315-.48 0-.959-.04-1.416-.118z"/>
</symbol>
<symbol id="user-actions-icon-star" viewBox="0 0 15 15">
	<g clip-path="url(#clip0)">
		<path fill="#737373" d="M11.643 14.697a.798.798 0 00.777-.975l-.966-4.25 3.273-2.87a.797.797 0 00-.452-1.396l-4.33-.393L8.233.807A.797.797 0 006.767.806L5.055 4.813l-4.33.393a.796.796 0 00-.453 1.395l3.273 2.87-.965 4.25a.797.797 0 001.186.862L7.5 12.35l3.734 2.233a.799.799 0 00.409.113zM7.5 11.39a.799.799 0 00-.409.113l-3.524 2.108.911-4.012a.797.797 0 00-.252-.777l-3.09-2.71 4.088-.371a.796.796 0 00.662-.484L7.5 1.477l1.616 3.781c.114.27.367.454.66.481l4.09.372-3.09 2.71a.796.796 0 00-.253.777l.91 4.012-3.524-2.107a.799.799 0 00-.409-.113zm2.478-6.5v.002-.001zM5.023 4.89z"/>
	</g>

</symbol>
<symbol id="user-actions-icon-subscribers" viewBox="0 0 18 15">
	<g fill="#737373" clip-path="url(#clip0)">
		<path d="M5.625 7.187A3.128 3.128 0 012.5 4.062 3.128 3.128 0 015.625.937 3.129 3.129 0 018.75 4.063a3.128 3.128 0 01-3.125 3.125zm0-5.312a2.19 2.19 0 00-2.188 2.187A2.19 2.19 0 005.625 6.25a2.19 2.19 0 002.187-2.188 2.19 2.19 0 00-2.187-2.187zM10.78 14.062H.47A.469.469 0 010 13.594v-2.188a2.972 2.972 0 012.969-2.969H8.28a2.972 2.972 0 012.969 2.97v2.187c0 .258-.21.468-.47.468zm-9.843-.937h9.375v-1.719c0-1.12-.911-2.031-2.031-2.031H2.969c-1.12 0-2.032.911-2.032 2.031v1.719zM17.53 7.344h-5.312a.469.469 0 010-.938h5.313a.469.469 0 010 .938z"/>
		<path d="M15.03 9.844a.469.469 0 01-.331-.8l2.17-2.17-2.17-2.168a.469.469 0 11.664-.663l2.5 2.5a.469.469 0 010 .663l-2.5 2.5a.466.466 0 01-.332.138z"/>
	</g>

</symbol>
<symbol id="user-actions-icon-subscriptions" viewBox="0 0 18 15">
	<path fill="#737373" d="M5.625 7.187A3.128 3.128 0 012.5 4.062 3.128 3.128 0 015.625.937 3.129 3.129 0 018.75 4.063a3.128 3.128 0 01-3.125 3.125zm0-5.312a2.19 2.19 0 00-2.188 2.187A2.19 2.19 0 005.625 6.25a2.19 2.19 0 002.187-2.188 2.19 2.19 0 00-2.187-2.187zM10.78 14.062H.47A.469.469 0 010 13.594v-2.188a2.972 2.972 0 012.969-2.969H8.28a2.972 2.972 0 012.969 2.97v2.187c0 .258-.21.468-.47.468zm-9.843-.937h9.375v-1.719c0-1.12-.911-2.031-2.031-2.031H2.969c-1.12 0-2.032.911-2.032 2.031v1.719zM12.219 6.405h5.312a.469.469 0 010 .938H12.22a.469.469 0 010-.938z"/>
	<path fill="#737373" d="M14.719 3.905a.469.469 0 01.331.8l-2.168 2.17 2.168 2.168a.469.469 0 11-.663.663l-2.5-2.5a.469.469 0 010-.663l2.5-2.5a.466.466 0 01.332-.138z"/>
</symbol>
<symbol id="user" viewBox="0 0 22 18">
	<path d="M11 8.7c2.4 0 4.4-2 4.4-4.4-.1-2.4-2-4.3-4.4-4.3-2.4 0-4.3 2-4.3 4.5 0 2.3 1.9 4.2 4.3 4.2zm0-1.8c-1.3 0-2.3-1.1-2.3-2.4s1-2.4 2.3-2.4c1.3 0 2.3 1.1 2.3 2.4s-1 2.4-2.3 2.4zM21.9 16.8c-.2-.5-2.9-6.3-10.9-6.3C2.7 10.5.1 16.8.1 16.9c-.1.5.2 1 .7 1.2h.4c.4 0 .8-.3.9-.6.6-1.2 2.9-5 9-5 6.2 0 8.5 3.8 9 5 .1.4.5.7.9.7h.4c.2-.1.4-.2.5-.4.1-.5.1-.7 0-1z"/>
</symbol>
<symbol id="views" viewBox="0 0 23 16">
	<path d="M22.604 7.96l.016-.037-.016-.038C20.934 3.798 16.704.9 11.756.9S2.579 3.798.907 7.885l-.015.038.015.038c1.672 4.087 5.9 6.985 10.849 6.985 4.948 0 9.177-2.898 10.848-6.985zm-1.092-.037c-1.635 3.628-5.45 6.054-9.756 6.054-4.305 0-8.12-2.426-9.756-6.054C3.635 4.295 7.45 1.87 11.756 1.87c4.305 0 8.12 2.426 9.756 6.054zm-7.374 0c0 1.213-1.06 2.208-2.382 2.208-1.323 0-2.382-.995-2.382-2.208 0-1.212 1.06-2.208 2.382-2.208s2.382.996 2.382 2.208zm-5.792 0c0 1.761 1.534 3.177 3.41 3.177 1.876 0 3.41-1.416 3.41-3.177 0-1.761-1.534-3.177-3.41-3.177-1.876 0-3.41 1.416-3.41 3.177z"/>
</symbol>
<symbol id="vk" viewBox="0 0 19 11">
	<path fill="#737373" d="M18.9 9.78a1.28 1.28 0 00-.065-.124c-.33-.593-.959-1.321-1.887-2.184l-.02-.02-.01-.01-.01-.01h-.01c-.421-.401-.688-.672-.8-.81-.205-.263-.25-.53-.139-.8.08-.205.376-.636.89-1.295.27-.35.484-.629.642-.84 1.14-1.515 1.634-2.483 1.482-2.905l-.059-.099c-.04-.059-.141-.113-.306-.163s-.375-.057-.632-.024l-2.846.02a.37.37 0 00-.198.004l-.129.03-.049.025-.04.03a.44.44 0 00-.108.103.68.68 0 00-.099.173 16.15 16.15 0 01-1.057 2.223c-.244.409-.468.763-.672 1.063-.204.3-.376.52-.514.662a3.591 3.591 0 01-.375.34c-.112.086-.198.123-.257.11a7.2 7.2 0 01-.168-.04.658.658 0 01-.223-.242 1.086 1.086 0 01-.113-.386 4.26 4.26 0 01-.035-.4 8.415 8.415 0 01.005-.474c.007-.205.01-.343.01-.415 0-.25.005-.522.015-.816l.024-.696c.007-.171.01-.353.01-.544 0-.19-.011-.34-.034-.45A1.54 1.54 0 0011.019.5a.533.533 0 00-.202-.237c-.09-.056-.2-.1-.332-.133C10.136.05 9.693.008 9.152 0 7.926-.012 7.14.067 6.79.24a1.331 1.331 0 00-.376.296c-.118.145-.135.224-.05.237.396.06.676.201.84.425l.06.119c.046.085.092.237.138.454.046.218.076.458.09.721.032.481.032.893 0 1.236a14.7 14.7 0 01-.095.8 1.603 1.603 0 01-.252.682.17.17 0 01-.049.05.74.74 0 01-.267.049c-.092 0-.204-.046-.336-.139a2.37 2.37 0 01-.41-.38 5.085 5.085 0 01-.48-.677c-.177-.29-.362-.632-.553-1.028l-.158-.286a24.637 24.637 0 01-.405-.806A15.528 15.528 0 014.033.97a.651.651 0 00-.237-.317l-.05-.03A.676.676 0 003.588.54a1.049 1.049 0 00-.227-.065L.653.495C.376.495.19.558.09.683l-.04.06A.32.32 0 00.02.9c0 .073.02.162.06.267.395.93.825 1.825 1.29 2.688.464.863.867 1.558 1.21 2.085.342.527.692 1.024 1.047 1.492.356.468.592.768.707.9.115.131.206.23.272.296l.247.237c.158.158.39.347.696.568.307.22.646.438 1.018.652.372.214.806.389 1.3.524s.975.19 1.442.163h1.137c.23-.02.405-.092.524-.217l.039-.05c.026-.039.051-.1.074-.182.023-.083.035-.173.035-.272a3.258 3.258 0 01.064-.766c.049-.227.105-.398.168-.514a1.265 1.265 0 01.38-.434.648.648 0 01.08-.035c.157-.053.343-.002.558.153.214.155.415.346.603.574.188.227.413.482.677.765.263.284.494.494.691.633l.198.118c.132.08.303.152.514.218.21.066.395.082.553.05l2.53-.04c.25 0 .445-.042.583-.124.138-.082.22-.173.247-.272a.764.764 0 00.005-.336 1.237 1.237 0 00-.07-.262z"/>
</symbol>
<symbol id="warning" viewBox="0 0 35 35">
	<rect width="34" height="34" x=".842" y=".48" fill="#333" rx="2"/>
	<path fill="#fff" d="M17.842 6.375a2.726 2.726 0 00-2.715 2.715c0 .247.038.504.092.94.055.438.131 1.002.224 1.651.186 1.299.432 2.935.679 4.542.494 3.216.987 6.309.987 6.309a.74.74 0 001.465 0s.493-3.093.987-6.309c.247-1.607.493-3.243.68-4.542.092-.65.168-1.213.223-1.65.055-.437.092-.694.092-.941a2.726 2.726 0 00-2.714-2.715zm0 17.769a2.232 2.232 0 00-2.221 2.22 2.232 2.232 0 002.22 2.222 2.232 2.232 0 002.222-2.221 2.232 2.232 0 00-2.221-2.221z"/>
</symbol>
<symbol id="youtube" viewBox="0 0 23 16">
	<path d="M19.7 0H3.3C1.5 0 0 1.5 0 3.2v9.5C0 14.5 1.5 16 3.3 16h16.5c1.8 0 3.3-1.5 3.3-3.2V3.2C23 1.5 21.5 0 19.7 0zM8.1 11.9V4.1L15.9 8l-7.8 3.9z"/>
</symbol>
</svg>